<svg width="130" height="35" viewBox="0 0 130 35" fill="none" xmlns="http://www.w3.org/2000/svg">
<path d="M71.9816 17.9667H62.9698V2.33333H71.6572C72.6611 2.33333 73.5105 2.48111 74.2055 2.77667C74.916 3.07222 75.4565 3.50778 75.8272 4.08333C76.2133 4.65889 76.4063 5.35889 76.4063 6.18333C76.4063 7.10111 76.1361 7.87889 75.5955 8.51667C75.0704 9.15444 74.2133 9.54333 73.024 9.68333V9.84667C74.3523 10.0022 75.3407 10.4222 75.9893 11.1067C76.638 11.7756 76.9623 12.6233 76.9623 13.65C76.9623 14.5367 76.7693 15.3067 76.3832 15.96C75.9971 16.6133 75.4333 17.1111 74.692 17.4533C73.9507 17.7956 73.0472 17.9667 71.9816 17.9667ZM65.4486 10.9667V15.7033H71.7036C72.6302 15.7033 73.3175 15.5167 73.7654 15.1433C74.2287 14.7544 74.4604 14.14 74.4604 13.3C74.4604 12.4756 74.2287 11.8844 73.7654 11.5267C73.3175 11.1533 72.6302 10.9667 71.7036 10.9667H65.4486ZM65.4486 4.59667V8.89H71.3097C72.1901 8.89 72.8464 8.71889 73.2789 8.37667C73.7113 8.01889 73.9275 7.47444 73.9275 6.74333C73.9275 6.01222 73.719 5.47556 73.302 5.13333C72.8851 4.77556 72.2441 4.59667 71.3792 4.59667H65.4486Z" fill="black"/>
<path d="M81.0847 17.9667H78.5827V6.37H80.8762V9.66L81.0847 9.77667V17.9667ZM81.0847 11.4567H80.5287V9.49667H81.0384C81.1465 8.85889 81.3627 8.29111 81.687 7.79333C82.0113 7.28 82.4438 6.87556 82.9843 6.58C83.5403 6.28444 84.2122 6.13667 84.9998 6.13667C85.8801 6.13667 86.5983 6.32333 87.1543 6.69667C87.7103 7.07 88.1118 7.56778 88.3589 8.19C88.6215 8.81222 88.7528 9.48889 88.7528 10.22V11.7367H86.274V10.71C86.274 9.87 86.0886 9.25556 85.718 8.86667C85.3473 8.47778 84.7295 8.28333 83.8647 8.28333C82.8762 8.28333 82.1658 8.55556 81.7334 9.1C81.3009 9.64444 81.0847 10.43 81.0847 11.4567Z" fill="black"/>
<path d="M101.212 17.9667H98.919V14.98L98.7569 14.91V10.9433C98.7569 9.97889 98.5252 9.31 98.0619 8.93667C97.614 8.54778 96.834 8.35333 95.7221 8.35333C94.6564 8.35333 93.861 8.54 93.3359 8.91333C92.8108 9.28667 92.5483 9.90111 92.5483 10.7567V10.85H90.0695V10.7567C90.0695 9.87 90.3011 9.08444 90.7644 8.4C91.2278 7.7 91.8919 7.14778 92.7568 6.74333C93.6371 6.33889 94.6873 6.13667 95.9074 6.13667C97.1275 6.13667 98.1236 6.34667 98.8959 6.76667C99.6835 7.17111 100.263 7.73111 100.633 8.44667C101.019 9.16222 101.212 9.98667 101.212 10.92V17.9667ZM93.7066 18.2C92.5174 18.2 91.5675 17.9356 90.8571 17.4067C90.1621 16.8622 89.8146 16.1156 89.8146 15.1667C89.8146 14.56 89.9613 14.0544 90.2548 13.65C90.5637 13.23 90.9961 12.9033 91.5521 12.67C92.1081 12.4367 92.7645 12.2733 93.5212 12.18L98.9885 11.5967V13.09L94.2394 13.6267C93.5907 13.7044 93.1043 13.8444 92.7799 14.0467C92.471 14.2333 92.3166 14.5522 92.3166 15.0033C92.3166 15.47 92.4788 15.82 92.8031 16.0533C93.1429 16.2711 93.668 16.38 94.3784 16.38C95.2587 16.38 96.0232 16.2711 96.6719 16.0533C97.3205 15.82 97.8302 15.4622 98.2009 14.98C98.5715 14.4978 98.7569 13.8756 98.7569 13.1133L99.0812 13.16V15.0733H98.7569C98.448 16.0533 97.8534 16.8233 96.973 17.3833C96.1082 17.9278 95.0193 18.2 93.7066 18.2Z" fill="black"/>
<path d="M115.469 17.9667H112.967V11.6667C112.967 10.5778 112.705 9.76111 112.18 9.21667C111.67 8.67222 110.813 8.4 109.608 8.4C108.357 8.4 107.43 8.72667 106.828 9.38C106.241 10.0178 105.948 10.9667 105.948 12.2267L105.508 12.25L105.392 9.96333H105.902C106.025 9.31 106.272 8.69556 106.643 8.12C107.029 7.52889 107.554 7.05444 108.218 6.69667C108.898 6.32333 109.724 6.13667 110.697 6.13667C111.763 6.13667 112.651 6.35444 113.361 6.79C114.072 7.22556 114.597 7.80889 114.936 8.54C115.292 9.27111 115.469 10.0878 115.469 10.99V17.9667ZM105.948 17.9667H103.446V6.37H105.739V10.01L105.948 10.1267V17.9667Z" fill="black"/>
<path d="M122.772 18.2C121.552 18.2 120.517 17.9511 119.668 17.4533C118.834 16.94 118.201 16.2322 117.768 15.33C117.336 14.4122 117.119 13.3622 117.119 12.18C117.119 10.9667 117.336 9.90889 117.768 9.00667C118.201 8.10444 118.826 7.40444 119.645 6.90667C120.463 6.39333 121.452 6.13667 122.61 6.13667C123.969 6.13667 125.042 6.45556 125.83 7.09333C126.618 7.73111 127.127 8.54 127.359 9.52H127.938V12.11H127.498C127.498 10.8811 127.151 9.96333 126.456 9.35667C125.761 8.73444 124.772 8.42333 123.49 8.42333C122.703 8.42333 122.015 8.54778 121.428 8.79667C120.842 9.03 120.394 9.41889 120.085 9.96333C119.791 10.5078 119.645 11.2467 119.645 12.18C119.645 13.0978 119.791 13.8289 120.085 14.3733C120.394 14.9178 120.842 15.3067 121.428 15.54C122.015 15.7733 122.718 15.89 123.537 15.89C124.355 15.89 125.058 15.7656 125.645 15.5167C126.247 15.2522 126.703 14.8478 127.012 14.3033C127.336 13.7589 127.498 13.09 127.498 12.2967H127.938L128.1 14.63H127.544C127.313 15.7811 126.78 16.6678 125.946 17.29C125.127 17.8967 124.069 18.2 122.772 18.2ZM130 17.9667H127.707V14.3267L127.498 14.0233V2.33333H130V17.9667Z" fill="black"/>
<path d="M65.6667 24.0475V31.9667H64.4765V25.2462H64.4305L62.5493 26.4836V25.339L64.5111 24.0475H65.6667Z" fill="#666666"/>
<path d="M70.408 23.9392C70.7586 23.9418 71.1041 24.0062 71.4445 24.1325C71.7849 24.2589 72.0921 24.4651 72.3659 24.7512C72.6423 25.0374 72.8625 25.4241 73.0263 25.9113C73.1926 26.3959 73.2771 26.9991 73.2796 27.7209C73.2796 28.4144 73.2105 29.0318 73.0723 29.5731C72.9341 30.1119 72.7358 30.5669 72.4773 30.9381C72.2213 31.3093 71.9104 31.5916 71.5444 31.7849C71.1784 31.9783 70.7663 32.0749 70.3082 32.0749C69.8398 32.0749 69.4239 31.9821 69.0604 31.7965C68.697 31.6109 68.4014 31.3544 68.1736 31.027C67.9458 30.6971 67.8038 30.3181 67.7475 29.8902H68.9184C68.9952 30.2305 69.1513 30.5063 69.3868 30.7177C69.6248 30.9265 69.9319 31.0309 70.3082 31.0309C70.884 31.0309 71.3332 30.7783 71.6557 30.273C71.9782 29.7652 72.1407 29.0563 72.1433 28.1463H72.0818C71.9488 28.368 71.7824 28.5587 71.5827 28.7186C71.3857 28.8784 71.1643 29.0021 70.9186 29.0898C70.6729 29.1774 70.4105 29.2212 70.1316 29.2212C69.6785 29.2212 69.2665 29.1091 68.8954 28.8848C68.5242 28.6606 68.2286 28.3525 68.0085 27.9607C67.7884 27.5688 67.6784 27.1216 67.6784 26.6189C67.6784 26.1188 67.791 25.6651 68.0162 25.2578C68.244 24.8505 68.5614 24.5282 68.9683 24.2911C69.3778 24.0513 69.8577 23.934 70.408 23.9392ZM70.4118 24.9446C70.1124 24.9446 69.8423 25.0193 69.6018 25.1688C69.3637 25.3158 69.1756 25.5156 69.0374 25.7682C68.8992 26.0183 68.8301 26.2967 68.8301 26.6034C68.8301 26.9102 68.8966 27.1886 69.0297 27.4387C69.1654 27.6861 69.3497 27.8833 69.5826 28.0303C69.818 28.1746 70.0868 28.2468 70.3888 28.2468C70.614 28.2468 70.8239 28.203 71.0184 28.1153C71.2129 28.0277 71.3831 27.9065 71.529 27.7519C71.6749 27.5946 71.7888 27.4167 71.8707 27.2182C71.9526 27.0198 71.9935 26.8109 71.9935 26.5918C71.9935 26.3005 71.9244 26.0299 71.7862 25.7798C71.6506 25.5297 71.4637 25.3287 71.2257 25.1766C70.9877 25.0219 70.7164 24.9446 70.4118 24.9446Z" fill="#666666"/>
<path d="M77.3232 32.0749C76.7729 32.0749 76.2866 31.9796 75.8643 31.7888C75.4446 31.598 75.1157 31.3351 74.8777 31C74.6397 30.6648 74.5219 30.2833 74.5245 29.8554C74.5219 29.5203 74.5898 29.2122 74.728 28.9312C74.8687 28.6477 75.0594 28.4118 75.3 28.2236C75.5406 28.0329 75.8093 27.9117 76.1062 27.8601V27.8137C75.7146 27.7184 75.4011 27.507 75.1656 27.1796C74.9302 26.8522 74.8137 26.4758 74.8163 26.0505C74.8137 25.6457 74.9199 25.2849 75.1349 24.9678C75.3525 24.6481 75.6506 24.3968 76.0294 24.2137C76.4082 24.0307 76.8395 23.9392 77.3232 23.9392C77.8018 23.9392 78.2292 24.032 78.6055 24.2176C78.9843 24.4006 79.2824 24.652 79.5 24.9716C79.7176 25.2887 79.8276 25.6483 79.8302 26.0505C79.8276 26.4758 79.7073 26.8522 79.4693 27.1796C79.2313 27.507 78.9216 27.7184 78.5402 27.8137V27.8601C78.8345 27.9117 79.0994 28.0329 79.3349 28.2236C79.5729 28.4118 79.7623 28.6477 79.9031 28.9312C80.0464 29.2122 80.1194 29.5203 80.1219 29.8554C80.1194 30.2833 79.9991 30.6648 79.7611 31C79.523 31.3351 79.1929 31.598 78.7706 31.7888C78.3508 31.9796 77.8684 32.0749 77.3232 32.0749ZM77.3232 31.0966C77.6483 31.0966 77.9298 31.0425 78.1678 30.9342C78.4058 30.8234 78.5901 30.67 78.7206 30.4741C78.8512 30.2756 78.9177 30.0436 78.9203 29.7781C78.9177 29.5022 78.8461 29.2586 78.7053 29.0472C78.5671 28.8359 78.379 28.6696 78.1409 28.5484C77.9029 28.4273 77.6303 28.3667 77.3232 28.3667C77.0135 28.3667 76.7384 28.4273 76.4978 28.5484C76.2572 28.6696 76.0678 28.8359 75.9296 29.0472C75.7914 29.2586 75.7236 29.5022 75.7261 29.7781C75.7236 30.0436 75.7863 30.2756 75.9142 30.4741C76.0448 30.67 76.2303 30.8234 76.4709 30.9342C76.7115 31.0425 76.9956 31.0966 77.3232 31.0966ZM77.3232 27.4116C77.5843 27.4116 77.8159 27.3587 78.0181 27.253C78.2203 27.1474 78.379 27.0004 78.4941 26.8122C78.6119 26.624 78.672 26.4036 78.6746 26.151C78.672 25.9035 78.6132 25.687 78.498 25.5014C78.3854 25.3158 78.228 25.1727 78.0258 25.0722C77.8236 24.9691 77.5894 24.9175 77.3232 24.9175C77.0519 24.9175 76.8139 24.9691 76.6091 25.0722C76.4069 25.1727 76.2495 25.3158 76.1369 25.5014C76.0243 25.687 75.9693 25.9035 75.9718 26.151C75.9693 26.4036 76.0256 26.624 76.1408 26.8122C76.2559 27.0004 76.4146 27.1474 76.6168 27.253C76.8216 27.3587 77.057 27.4116 77.3232 27.4116Z" fill="#666666"/>
<path d="M84.2423 32.0749C83.8916 32.0698 83.5461 32.0053 83.2057 31.8816C82.8679 31.7579 82.5607 31.5516 82.2843 31.2629C82.0079 30.9742 81.7865 30.5862 81.6202 30.099C81.4564 29.6118 81.3745 29.0034 81.3745 28.2739C81.3745 27.583 81.4423 26.9695 81.5779 26.4333C81.7161 25.8971 81.9145 25.4447 82.173 25.076C82.4315 24.7048 82.7437 24.4226 83.1097 24.2292C83.4757 24.0359 83.8865 23.9392 84.3421 23.9392C84.8105 23.9392 85.2264 24.032 85.5898 24.2176C85.9533 24.4032 86.2476 24.6597 86.4728 24.9871C86.7006 25.3145 86.8452 25.687 86.9066 26.1046H85.7357C85.6564 25.7746 85.4989 25.5053 85.2635 25.2964C85.028 25.0876 84.7209 24.9832 84.3421 24.9832C83.7662 24.9832 83.3171 25.2359 82.9946 25.7411C82.6746 26.2464 82.5134 26.9489 82.5108 27.8485H82.5684C82.7041 27.6243 82.8704 27.4335 83.0675 27.2762C83.2671 27.1164 83.4898 26.994 83.7355 26.9089C83.9838 26.8213 84.2448 26.7774 84.5187 26.7774C84.9743 26.7774 85.3863 26.8896 85.7549 27.1138C86.126 27.3355 86.4216 27.6423 86.6417 28.0341C86.8618 28.426 86.9719 28.8745 86.9719 29.3798C86.9719 29.885 86.858 30.3426 86.6302 30.7525C86.405 31.1624 86.0876 31.4872 85.6781 31.7269C85.2686 31.9641 84.79 32.0801 84.2423 32.0749ZM84.2384 31.0696C84.5405 31.0696 84.8105 30.9948 85.0485 30.8453C85.2865 30.6958 85.4746 30.4947 85.6128 30.2421C85.7511 29.9894 85.8202 29.7072 85.8202 29.3953C85.8202 29.0911 85.7523 28.8139 85.6167 28.5639C85.4836 28.3138 85.2993 28.1153 85.0639 27.9684C84.831 27.8215 84.5648 27.748 84.2653 27.748C84.0375 27.748 83.8264 27.7918 83.6319 27.8795C83.4399 27.9671 83.271 28.0883 83.1251 28.2429C82.9792 28.3976 82.864 28.5755 82.7796 28.7766C82.6977 28.9751 82.6567 29.1852 82.6567 29.4069C82.6567 29.7033 82.7245 29.9778 82.8602 30.2305C82.9984 30.4831 83.1865 30.6868 83.4245 30.8414C83.6651 30.9935 83.9364 31.0696 84.2384 31.0696Z" fill="#666666"/>
<path fill-rule="evenodd" clip-rule="evenodd" d="M14.6721 3.28431C13.1506 1.21736 11.2839 0 9.26656 0C4.14878 0 0 7.83502 0 17.5C0 27.165 4.14878 35 9.26656 35C11.2839 35 13.1506 33.7826 14.6721 31.7157C16.1935 33.7826 18.0602 35 20.0775 35C22.0949 35 23.9616 33.7826 25.483 31.7157C27.0045 33.7826 28.8712 35 30.8885 35C32.9058 35 34.7726 33.7826 36.294 31.7157C37.8155 33.7826 39.6822 35 41.6995 35C46.8173 35 50.9661 27.165 50.9661 17.5C50.9661 7.83502 46.8173 0 41.6995 0C39.6822 0 37.8155 1.21736 36.294 3.2843C34.7726 1.21736 32.9058 0 30.8885 0C28.8712 0 27.0045 1.21736 25.483 3.2843C23.9616 1.21736 22.0949 0 20.0775 0C18.0602 0 16.1935 1.21736 14.6721 3.28431ZM17.7609 17.5C17.7609 22.2307 16.7439 26.4749 15.1376 29.5084C14.9865 29.7937 14.8312 30.0667 14.6721 30.3273C14.5129 30.0667 14.3576 29.7937 14.2065 29.5084C12.6002 26.4749 11.5832 22.2307 11.5832 17.5C11.5832 12.7693 12.6002 8.52509 14.2065 5.49164C14.3576 5.2063 14.5129 4.93325 14.6721 4.67267C14.8312 4.93325 14.9865 5.2063 15.1376 5.49164C16.7439 8.52509 17.7609 12.7693 17.7609 17.5ZM14.206 3.96067C12.1334 7.17005 10.811 12.0434 10.811 17.5C10.811 22.9566 12.1334 27.83 14.206 31.0393C12.7447 33.1198 11.0132 34.2222 9.26656 34.2222C7.1317 34.2222 5.01944 32.5752 3.39548 29.5084C1.78922 26.4749 0.772213 22.2307 0.772213 17.5C0.772213 12.7693 1.78922 8.52509 3.39548 5.49164C5.01944 2.42478 7.1317 0.777778 9.26656 0.777778C11.0132 0.777778 12.7447 1.8802 14.206 3.96067ZM35.828 3.96067C34.3666 1.8802 32.6352 0.777778 30.8885 0.777778C29.1419 0.777778 27.4104 1.8802 25.9491 3.96067C28.0217 7.17005 29.3441 12.0434 29.3441 17.5C29.3441 22.9566 28.0217 27.83 25.9491 31.0393C27.4104 33.1198 29.1419 34.2222 30.8885 34.2222C32.6352 34.2222 34.3666 33.1198 35.828 31.0393C33.7554 27.83 32.433 22.9566 32.433 17.5C32.433 12.0434 33.7554 7.17005 35.828 3.96067ZM36.294 30.3273C36.1349 30.0668 35.9795 29.7937 35.8284 29.5084C34.2222 26.4749 33.2052 22.2307 33.2052 17.5C33.2052 12.7693 34.2222 8.52509 35.8284 5.49164C35.9795 5.2063 36.1349 4.93325 36.294 4.67267C36.4532 4.93325 36.6085 5.2063 36.7596 5.49164C38.3659 8.52509 39.3829 12.7693 39.3829 17.5C39.3829 22.2307 38.3659 26.4749 36.7596 29.5084C36.6085 29.7937 36.4532 30.0668 36.294 30.3273ZM36.7601 31.0393C38.8327 27.83 40.1551 22.9566 40.1551 17.5C40.1551 12.0434 38.8327 7.17005 36.7601 3.96067C38.2214 1.8802 39.9529 0.777778 41.6995 0.777778C43.8344 0.777778 45.9466 2.42478 47.5706 5.49164C49.1769 8.52509 50.1939 12.7693 50.1939 17.5C50.1939 22.2307 49.1769 26.4749 47.5706 29.5084C45.9466 32.5752 43.8344 34.2222 41.6995 34.2222C39.9529 34.2222 38.2214 33.1198 36.7601 31.0393ZM25.9486 5.49164C25.7975 5.2063 25.6422 4.93325 25.483 4.67267C25.3239 4.93325 25.1685 5.2063 25.0175 5.49164C23.4112 8.52509 22.3942 12.7693 22.3942 17.5C22.3942 22.2307 23.4112 26.4749 25.0175 29.5084C25.1685 29.7937 25.3239 30.0667 25.483 30.3273C25.6422 30.0667 25.7975 29.7937 25.9486 29.5084C27.5549 26.4749 28.5719 22.2307 28.5719 17.5C28.5719 12.7693 27.5549 8.52509 25.9486 5.49164ZM21.622 17.5C21.622 12.0434 22.9444 7.17005 25.017 3.96067C23.5557 1.8802 21.8242 0.777778 20.0775 0.777778C18.3309 0.777778 16.5994 1.8802 15.1381 3.96067C17.2107 7.17005 18.5331 12.0434 18.5331 17.5C18.5331 22.9566 17.2107 27.83 15.1381 31.0393C16.5994 33.1198 18.3309 34.2222 20.0775 34.2222C21.8242 34.2222 23.5557 33.1198 25.017 31.0393C22.9444 27.83 21.622 22.9566 21.622 17.5Z" fill="black"/>
</svg>
