<svg width="130" height="46" viewBox="0 0 130 46" fill="none" xmlns="http://www.w3.org/2000/svg">
<path fill-rule="evenodd" clip-rule="evenodd" d="M15.823 6.57383C18.5065 9.26541 20.438 12.5702 21.482 16.1599C22.0706 18.1838 22.3771 20.2983 22.3771 22.4445C22.3771 24.5906 22.0706 26.7051 21.482 28.7291C20.438 32.3187 18.5065 35.6235 15.823 38.3151C11.8379 42.3122 6.50454 44.646 0.895083 44.871C0.597446 44.8829 0.299031 44.8889 0 44.8889L4.35697e-06 0C0.299036 0 0.59745 0.00600342 0.895087 0.0179437C6.50454 0.242978 11.8379 2.57676 15.823 6.57383ZM15.1901 37.6803C11.3729 41.509 6.26705 43.748 0.895083 43.9725L0.895087 0.916471C6.26705 1.14098 11.3729 3.37998 15.1901 7.20866C19.2187 11.2494 21.482 16.7299 21.482 22.4445C21.482 28.159 19.2187 33.6395 15.1901 37.6803Z" fill="black"/>
<path fill-rule="evenodd" clip-rule="evenodd" d="M22.3771 22.4445L22.3771 0C22.6761 0 22.9745 0.00600342 23.2722 0.0179437C28.8816 0.242978 34.215 2.57676 38.2 6.57383C42.3966 10.783 44.7541 16.4918 44.7541 22.4445C44.7541 28.3971 42.3966 34.1059 38.2 38.3151C34.215 42.3122 28.8816 44.646 23.2721 44.871C22.9745 44.8829 22.6761 44.8889 22.3771 44.8889L22.3771 22.4445ZM23.2722 0.916471C28.6441 1.14098 33.7499 3.37998 37.5671 7.20866C41.5958 11.2494 43.859 16.7299 43.859 22.4445C43.859 28.159 41.5958 33.6395 37.5671 37.6803C33.7499 41.509 28.6441 43.748 23.2721 43.9725L23.2722 0.916471Z" fill="black"/>
<path fill-rule="evenodd" clip-rule="evenodd" d="M84.6095 9.17531L83.1791 12.5689H81.6485L86.8848 0.691307L92.121 12.5689H90.5904L89.1525 9.17531H84.6095ZM85.1614 7.88251H88.6125L86.8848 3.81019L85.1614 7.88251Z" fill="black"/>
<path d="M74.4491 9.14299C74.7069 9.59548 74.9754 9.99409 75.2547 10.3388C75.5447 10.6836 75.8669 10.9529 76.2214 11.1468C76.5758 11.3408 76.9786 11.4377 77.4297 11.4377C77.8379 11.4377 78.187 11.3623 78.477 11.2115C78.7777 11.0606 79.0087 10.8506 79.1698 10.5812C79.3416 10.3119 79.4276 10.0049 79.4276 9.66012C79.4276 9.15377 79.3094 8.74977 79.0731 8.44811C78.8368 8.14646 78.5253 7.90406 78.1386 7.72091C77.7627 7.52699 77.3599 7.35462 76.9303 7.20379C76.651 7.10683 76.3395 6.98294 75.9958 6.83211C75.6521 6.67051 75.3245 6.47121 75.013 6.23419C74.7015 5.9864 74.4437 5.68475 74.2396 5.32923C74.0463 4.97371 73.9496 4.53739 73.9496 4.02027C73.9496 3.46006 74.0893 2.9591 74.3685 2.51739C74.6478 2.07568 75.0345 1.73093 75.5286 1.48315C76.0227 1.22459 76.5866 1.09531 77.2203 1.09531C77.8325 1.09531 78.3642 1.21381 78.8153 1.45083C79.2772 1.67707 79.6692 1.97333 79.9914 2.33963C80.3137 2.69515 80.5661 3.07222 80.7487 3.47083L79.5725 4.14955C79.4329 3.86944 79.2557 3.59472 79.0409 3.32539C78.826 3.05606 78.5629 2.8352 78.2514 2.66283C77.9507 2.49046 77.5801 2.40427 77.1397 2.40427C76.7316 2.40427 76.3986 2.4743 76.1408 2.61435C75.883 2.7544 75.6897 2.93216 75.5608 3.14763C75.4426 3.3631 75.3836 3.59472 75.3836 3.84251C75.3836 4.07952 75.4265 4.30038 75.5125 4.50507C75.5984 4.70976 75.738 4.90368 75.9314 5.08683C76.1354 5.26998 76.404 5.44774 76.7369 5.62011C77.0806 5.79248 77.4995 5.96486 77.9936 6.13723C78.2944 6.24497 78.6112 6.38502 78.9442 6.55739C79.2772 6.72977 79.5833 6.95062 79.8626 7.21995C80.1526 7.47851 80.3889 7.79633 80.5715 8.17339C80.7541 8.53969 80.8454 8.98139 80.8454 9.49852C80.8454 9.99409 80.7487 10.4412 80.5554 10.8398C80.3728 11.2384 80.115 11.5778 79.782 11.8579C79.4598 12.138 79.0892 12.3535 78.6703 12.5043C78.2622 12.6551 77.8325 12.7305 77.3814 12.7305C76.7692 12.7305 76.1999 12.6012 75.6736 12.3427C75.158 12.0733 74.7015 11.7232 74.3041 11.2923C73.9174 10.8506 73.6006 10.3819 73.3535 9.88636L74.4491 9.14299Z" fill="black"/>
<path d="M63.8642 1.25691H65.2337V8.85211C65.2337 9.36924 65.325 9.82172 65.5076 10.2096C65.7009 10.5974 65.9802 10.899 66.3454 11.1145C66.7106 11.33 67.1617 11.4377 67.6988 11.4377C68.2358 11.4377 68.6869 11.33 69.0521 11.1145C69.4173 10.899 69.6912 10.5974 69.8738 10.2096C70.0672 9.82172 70.1638 9.36924 70.1638 8.85211V1.25691H71.5333V8.85211C71.5333 9.41233 71.442 9.92945 71.2594 10.4035C71.0875 10.8775 70.8298 11.2869 70.4861 11.6316C70.1531 11.9764 69.7503 12.2457 69.2777 12.4396C68.8051 12.6336 68.2788 12.7305 67.6988 12.7305C67.1188 12.7305 66.5924 12.6336 66.1198 12.4396C65.6472 12.2457 65.2391 11.9764 64.8954 11.6316C64.5624 11.2869 64.3046 10.8775 64.122 10.4035C63.9502 9.92945 63.8642 9.41233 63.8642 8.85211V1.25691Z" fill="black"/>
<path d="M63.9448 17.4169H65.3143V28.7289H63.9448V17.4169Z" fill="black"/>
<path d="M77.8026 17.4169H76.4331V25.8363L67.894 16.8513V28.7289H69.2635V20.3096L77.8026 29.2945V17.4169Z" fill="black"/>
<path d="M79.2589 18.7097V17.4169H86.4285V18.7097H83.5284V28.7289H82.159V18.7097H79.2589Z" fill="black"/>
<path d="M94.3206 27.4361H89.2455V23.2345H93.9984V21.9417H89.2455V18.7097H94.3206V17.4169H87.876V28.7289H94.3206V27.4361Z" fill="black"/>
<path fill-rule="evenodd" clip-rule="evenodd" d="M98.1037 24.2041H99.4766L102.615 28.7289H104.307L100.946 24.0775C101.228 24.0112 101.494 23.9187 101.745 23.8001C102.325 23.52 102.781 23.1268 103.114 22.6204C103.458 22.1033 103.63 21.5 103.63 20.8105C103.63 20.1103 103.458 19.507 103.114 19.0006C102.781 18.4943 102.325 18.1064 101.745 17.8371C101.176 17.557 100.526 17.4169 99.7954 17.4169H96.7342V28.7289H98.1037V24.2041ZM99.7954 18.6289H98.1037V22.9921H99.7954C100.279 22.9921 100.703 22.9059 101.068 22.7336C101.444 22.5612 101.734 22.3134 101.938 21.9902C102.153 21.667 102.26 21.2738 102.26 20.8105C102.26 20.3473 102.153 19.954 101.938 19.6308C101.734 19.3076 101.444 19.0599 101.068 18.8875C100.703 18.7151 100.279 18.6289 99.7954 18.6289Z" fill="black"/>
<path d="M107.119 17.4169H105.75V28.7289H107.119V17.4169Z" fill="black"/>
<path fill-rule="evenodd" clip-rule="evenodd" d="M109.054 23.0729C109.054 22.2434 109.194 21.4785 109.473 20.7782C109.763 20.0672 110.166 19.4531 110.682 18.936C111.197 18.4081 111.804 17.9987 112.502 17.7078C113.2 17.4061 113.958 17.2553 114.774 17.2553C115.601 17.2553 116.358 17.4061 117.046 17.7078C117.744 17.9987 118.351 18.4081 118.866 18.936C119.382 19.4531 119.779 20.0672 120.059 20.7782C120.349 21.4785 120.494 22.2434 120.494 23.0729C120.494 23.8917 120.349 24.6566 120.059 25.3676C119.779 26.0787 119.382 26.6982 118.866 27.226C118.351 27.7432 117.744 28.1526 117.046 28.4542C116.358 28.7451 115.601 28.8905 114.774 28.8905C113.958 28.8905 113.2 28.7451 112.502 28.4542C111.804 28.1526 111.197 27.7432 110.682 27.226C110.166 26.6982 109.763 26.0787 109.473 25.3676C109.194 24.6566 109.054 23.8917 109.054 23.0729ZM110.504 23.0729C110.504 23.7086 110.607 24.3011 110.811 24.8505C111.025 25.3892 111.326 25.8578 111.713 26.2564C112.1 26.6551 112.551 26.9675 113.066 27.1937C113.593 27.4092 114.162 27.5169 114.774 27.5169C115.386 27.5169 115.95 27.4092 116.466 27.1937C116.992 26.9675 117.449 26.6551 117.835 26.2564C118.222 25.8578 118.517 25.3892 118.721 24.8505C118.936 24.3011 119.044 23.7086 119.044 23.0729C119.044 22.4373 118.936 21.8502 118.721 21.3115C118.517 20.762 118.222 20.288 117.835 19.8894C117.449 19.4908 116.992 19.1838 116.466 18.9683C115.95 18.742 115.386 18.6289 114.774 18.6289C114.162 18.6289 113.593 18.742 113.066 18.9683C112.551 19.1838 112.1 19.4908 111.713 19.8894C111.326 20.288 111.025 20.762 110.811 21.3115C110.607 21.8502 110.504 22.4373 110.504 23.0729Z" fill="black"/>
<path fill-rule="evenodd" clip-rule="evenodd" d="M125.17 24.2041H123.797V28.7289H122.428V17.4169H125.489C126.219 17.4169 126.869 17.557 127.438 17.8371C128.018 18.1064 128.475 18.4943 128.808 19.0006C129.151 19.507 129.323 20.1103 129.323 20.8105C129.323 21.5 129.151 22.1033 128.808 22.6204C128.475 23.1268 128.018 23.52 127.438 23.8001C127.188 23.9187 126.921 24.0112 126.64 24.0775L130 28.7289H128.308L125.17 24.2041ZM123.797 18.6289H125.489C125.972 18.6289 126.396 18.7151 126.762 18.8875C127.138 19.0599 127.428 19.3076 127.632 19.6308C127.846 19.954 127.954 20.3473 127.954 20.8105C127.954 21.2738 127.846 21.667 127.632 21.9902C127.428 22.3134 127.138 22.5612 126.762 22.7336C126.396 22.9059 125.972 22.9921 125.489 22.9921H123.797V18.6289Z" fill="black"/>
<path fill-rule="evenodd" clip-rule="evenodd" d="M63.9448 33.5769H67.3282C68.1553 33.5769 68.9125 33.7116 69.5999 33.9809C70.2873 34.2503 70.8781 34.6381 71.3722 35.1445C71.877 35.64 72.2691 36.238 72.5483 36.9382C72.8276 37.6277 72.9672 38.3926 72.9672 39.2329C72.9672 40.0733 72.8276 40.8436 72.5483 41.5438C72.2691 42.2333 71.877 42.8312 71.3722 43.3376C70.8781 43.8332 70.2873 44.2156 69.5999 44.4849C68.9125 44.7543 68.1553 44.8889 67.3282 44.8889H63.9448V33.5769ZM65.3143 43.5153V34.9505H67.3282C67.9619 34.9505 68.5419 35.0529 69.0682 35.2576C69.5946 35.4515 70.0457 35.737 70.4216 36.1141C70.7975 36.4804 71.0875 36.9274 71.2916 37.4553C71.4957 37.9832 71.5977 38.5758 71.5977 39.2329C71.5977 39.8901 71.4957 40.4826 71.2916 41.0105C71.0875 41.5384 70.7975 41.9909 70.4216 42.368C70.0457 42.7343 69.5946 43.0198 69.0682 43.2245C68.5419 43.4184 67.9619 43.5153 67.3282 43.5153H65.3143Z" fill="black"/>
<path d="M81.3402 43.5961H76.265V39.3945H81.0179V38.1017H76.265V34.8697H81.3402V33.5769H74.8956V44.8889H81.3402V43.5961Z" fill="black"/>
<path d="M84.1726 41.463C84.4304 41.9155 84.6989 42.3141 84.9782 42.6589C85.2682 43.0036 85.5904 43.2729 85.9449 43.4669C86.2993 43.6608 86.7021 43.7577 87.1533 43.7577C87.5614 43.7577 87.9105 43.6823 88.2005 43.5315C88.5013 43.3807 88.7322 43.1706 88.8933 42.9013C89.0652 42.6319 89.1511 42.3249 89.1511 41.9801C89.1511 41.4738 89.0329 41.0698 88.7966 40.7681C88.5603 40.4665 88.2488 40.2241 87.8622 40.0409C87.4862 39.847 87.0834 39.6746 86.6538 39.5238C86.3745 39.4269 86.063 39.303 85.7193 39.1521C85.3756 38.9905 85.048 38.7912 84.7365 38.5542C84.425 38.3064 84.1673 38.0048 83.9632 37.6493C83.7698 37.2937 83.6732 36.8574 83.6732 36.3403C83.6732 35.7801 83.8128 35.2791 84.0921 34.8374C84.3713 34.3957 84.758 34.051 85.2521 33.8032C85.7462 33.5446 86.3101 33.4153 86.9438 33.4153C87.556 33.4153 88.0877 33.5338 88.5388 33.7709C89.0007 33.9971 89.3928 34.2934 89.715 34.6597C90.0372 35.0152 90.2896 35.3922 90.4722 35.7909L89.2961 36.4696C89.1565 36.1895 88.9792 35.9147 88.7644 35.6454C88.5496 35.3761 88.2864 35.1552 87.9749 34.9829C87.6742 34.8105 87.3036 34.7243 86.8633 34.7243C86.4551 34.7243 86.1221 34.7943 85.8643 34.9344C85.6066 35.0744 85.4132 35.2522 85.2843 35.4677C85.1662 35.6831 85.1071 35.9147 85.1071 36.1625C85.1071 36.3996 85.1501 36.6204 85.236 36.8251C85.3219 37.0298 85.4616 37.2237 85.6549 37.4069C85.859 37.59 86.1275 37.7678 86.4605 37.9401C86.8042 38.1125 87.2231 38.2849 87.7172 38.4573C88.0179 38.565 88.3348 38.705 88.6677 38.8774C89.0007 39.0498 89.3068 39.2706 89.5861 39.54C89.8761 39.7985 90.1124 40.1164 90.295 40.4934C90.4776 40.8597 90.5689 41.3014 90.5689 41.8185C90.5689 42.3141 90.4722 42.7612 90.2789 43.1598C90.0963 43.5584 89.8385 43.8978 89.5055 44.1779C89.1833 44.458 88.8127 44.6735 88.3938 44.8243C87.9857 44.9751 87.556 45.0505 87.1049 45.0505C86.4927 45.0505 85.9234 44.9213 85.3971 44.6627C84.8815 44.3934 84.425 44.0432 84.0276 43.6123C83.641 43.1706 83.3241 42.702 83.077 42.2064L84.1726 41.463Z" fill="black"/>
<path d="M93.9499 33.5769H92.5804V44.8889H93.9499V33.5769Z" fill="black"/>
<path d="M101.766 40.4449V39.1521H107.002C107.002 39.9386 106.884 40.6873 106.648 41.3984C106.411 42.0986 106.062 42.7235 105.6 43.2729C105.139 43.8224 104.569 44.2587 103.893 44.5819C103.227 44.8943 102.464 45.0505 101.605 45.0505C100.788 45.0505 100.031 44.9105 99.333 44.6304C98.6349 44.3395 98.028 43.9355 97.5124 43.4184C96.9969 42.8905 96.5941 42.271 96.3041 41.56C96.0248 40.8489 95.8852 40.0733 95.8852 39.2329C95.8852 38.3926 96.0248 37.6169 96.3041 36.9059C96.5941 36.1949 96.9969 35.5808 97.5124 35.0637C98.028 34.5358 98.6349 34.1318 99.333 33.8517C100.031 33.5608 100.788 33.4153 101.605 33.4153C102.303 33.4153 102.942 33.5069 103.522 33.6901C104.113 33.8732 104.639 34.1425 105.101 34.4981C105.574 34.8536 105.971 35.2953 106.293 35.8232L105.327 36.712C104.972 36.1087 104.478 35.64 103.844 35.3061C103.211 34.9613 102.464 34.7889 101.605 34.7889C101.014 34.7889 100.455 34.8967 99.9292 35.1121C99.4136 35.3276 98.9625 35.6346 98.5758 36.0333C98.1891 36.4211 97.883 36.8897 97.6574 37.4392C97.4426 37.9778 97.3352 38.5758 97.3352 39.2329C97.3352 39.8901 97.4426 40.4934 97.6574 41.0429C97.883 41.5815 98.1891 42.0502 98.5758 42.4488C98.9625 42.8366 99.4136 43.1383 99.9292 43.3537C100.455 43.5692 101.014 43.6769 101.605 43.6769C102.163 43.6769 102.663 43.5961 103.103 43.4345C103.554 43.2622 103.941 43.0252 104.263 42.7235C104.585 42.4219 104.849 42.0771 105.053 41.6893C105.267 41.3014 105.423 40.8867 105.52 40.4449H101.766Z" fill="black"/>
<path d="M118.931 33.5769H117.561V41.9963L109.022 33.0113V44.8889H110.392V36.4696L118.931 45.4545V33.5769Z" fill="black"/>
</svg>
