<svg width="130" height="37" viewBox="0 0 130 37" fill="none" xmlns="http://www.w3.org/2000/svg">
<path d="M0.405 19.8839C0.135 19.8839 0 19.7854 0 19.5884C0 19.4271 0.117 19.3197 0.351 19.2659L0.972001 19.1584C1.35 19.0868 1.593 18.9883 1.701 18.8629C1.827 18.7375 1.89 18.4867 1.89 18.1105V2.31083C1.89 1.93465 1.827 1.68386 1.701 1.55847C1.593 1.43308 1.35 1.33455 0.972001 1.2629L0.351 1.15542C0.117 1.10168 0 0.994195 0 0.832974C0 0.635927 0.135 0.537403 0.405 0.537403H5.346C5.616 0.537403 5.751 0.644884 5.751 0.859846C5.751 1.02107 5.652 1.11959 5.454 1.15542L4.725 1.2629C4.347 1.31664 4.095 1.41516 3.969 1.55847C3.861 1.70178 3.807 1.96152 3.807 2.3377V9.08212C3.807 9.3329 3.933 9.4583 4.185 9.4583H9.531C9.783 9.4583 9.909 9.3329 9.909 9.08212V2.3377C9.909 1.96152 9.846 1.70178 9.72001 1.55847C9.61201 1.41516 9.36901 1.31664 8.991 1.2629L8.262 1.15542C8.064 1.11959 7.965 1.02107 7.965 0.859846C7.965 0.644884 8.1 0.537403 8.37 0.537403H13.311C13.581 0.537403 13.716 0.635927 13.716 0.832974C13.716 0.994195 13.599 1.10168 13.365 1.15542L12.744 1.2629C12.366 1.33455 12.114 1.43308 11.988 1.55847C11.88 1.68386 11.826 1.93465 11.826 2.31083V18.1105C11.826 18.4867 11.88 18.7375 11.988 18.8629C12.114 18.9883 12.366 19.0868 12.744 19.1584L13.365 19.2659C13.599 19.3197 13.716 19.4271 13.716 19.5884C13.716 19.7854 13.581 19.8839 13.311 19.8839H8.37C8.1 19.8839 7.965 19.7764 7.965 19.5615C7.965 19.4003 8.064 19.3017 8.262 19.2659L8.991 19.1584C9.36901 19.1047 9.61201 19.0062 9.72001 18.8629C9.846 18.7195 9.909 18.4598 9.909 18.0836V10.6406C9.909 10.3898 9.783 10.2644 9.531 10.2644H4.185C3.933 10.2644 3.807 10.3898 3.807 10.6406V18.0836C3.807 18.4598 3.861 18.7195 3.969 18.8629C4.095 19.0062 4.347 19.1047 4.725 19.1584L5.454 19.2659C5.652 19.3017 5.751 19.4003 5.751 19.5615C5.751 19.7764 5.616 19.8839 5.346 19.8839H0.405Z" fill="black"/>
<path d="M17.1499 20.1258C16.3939 20.1258 15.7729 19.8929 15.2869 19.4271C14.8009 18.9435 14.5579 18.3075 14.5579 17.5194C14.5579 16.7491 14.8009 16.0236 15.2869 15.3429C15.7729 14.6442 16.4389 14.0173 17.2849 13.462C18.1309 12.9066 19.0939 12.4588 20.1739 12.1184C20.4079 12.0468 20.5249 11.8945 20.5249 11.6617V9.21647C20.5249 8.35662 20.3899 7.74757 20.1199 7.3893C19.8499 7.01311 19.4809 6.82502 19.0129 6.82502C18.5629 6.82502 18.1489 7.03103 17.7709 7.44304C17.4109 7.83713 17.1499 8.50889 16.9879 9.4583C16.8979 10.0315 16.6999 10.4525 16.3939 10.7212C16.1059 10.972 15.8089 11.0974 15.5029 11.0974C14.9989 11.0974 14.7469 10.8466 14.7469 10.345C14.7469 9.82553 14.8909 9.31499 15.1789 8.81341C15.4849 8.29393 15.8809 7.82818 16.3669 7.41617C16.8529 6.98624 17.3839 6.64589 17.9599 6.3951C18.5359 6.14431 19.1119 6.01892 19.6879 6.01892C21.4699 6.01892 22.3609 7.04894 22.3609 9.10899V17.3313C22.3609 18.0836 22.5499 18.4598 22.9279 18.4598C23.1619 18.4598 23.3779 18.3075 23.5759 18.003C23.7739 17.6806 23.8729 17.1432 23.8729 16.3908C23.8729 16.1042 23.9899 15.9609 24.2239 15.9609C24.4399 15.9609 24.5479 16.1131 24.5479 16.4177C24.5479 17.7254 24.3139 18.6748 23.8459 19.2659C23.3959 19.8391 22.8829 20.1258 22.3069 20.1258C21.8749 20.1258 21.5329 19.9556 21.2809 19.6152C21.0289 19.257 20.8579 18.836 20.7679 18.3523C20.7499 18.1732 20.6689 18.0836 20.5249 18.0836C20.3989 18.0657 20.2729 18.1463 20.1469 18.3255C19.7149 18.9166 19.2739 19.3644 18.8239 19.669C18.3739 19.9735 17.8159 20.1258 17.1499 20.1258ZM17.8789 18.8897C18.3469 18.8897 18.7789 18.7285 19.1749 18.4061C19.5709 18.0657 19.8949 17.6179 20.1469 17.0626C20.3989 16.5072 20.5249 15.8803 20.5249 15.1816V13.2201C20.5249 12.8798 20.3359 12.7812 19.9579 12.9246C18.8599 13.3186 18.0049 13.865 17.3929 14.5636C16.7989 15.2443 16.5019 16.0684 16.5019 17.0357C16.5019 18.2717 16.9609 18.8897 17.8789 18.8897Z" fill="black"/>
<path d="M25.504 19.8839C25.234 19.8839 25.099 19.7854 25.099 19.5884C25.099 19.4271 25.216 19.3197 25.45 19.2659L25.774 19.2122C26.152 19.1405 26.395 19.033 26.503 18.8897C26.629 18.7285 26.692 18.4598 26.692 18.0836V9.05525C26.692 8.7328 26.638 8.51784 26.53 8.41036C26.44 8.28497 26.269 8.20436 26.017 8.16853L25.45 8.08792C25.216 8.07001 25.099 7.97148 25.099 7.79235C25.099 7.64904 25.243 7.55052 25.531 7.49678C26.089 7.40721 26.512 7.2639 26.8 7.06685C27.106 6.86981 27.421 6.62797 27.745 6.34136C27.907 6.18014 28.042 6.09953 28.15 6.09953C28.312 6.09953 28.393 6.20701 28.393 6.42197V7.63113C28.393 7.79235 28.447 7.89983 28.555 7.95357C28.681 7.9894 28.816 7.93566 28.96 7.79235C29.68 7.11164 30.31 6.64589 30.85 6.3951C31.408 6.14431 31.993 6.01892 32.605 6.01892C33.4151 6.01892 34.063 6.30553 34.549 6.87876C35.035 7.43408 35.278 8.2581 35.278 9.35082V18.0836C35.278 18.4598 35.3321 18.7285 35.44 18.8897C35.566 19.033 35.8181 19.1316 36.196 19.1853L36.7901 19.2659C36.988 19.3017 37.087 19.4092 37.087 19.5884C37.087 19.7854 36.979 19.8839 36.7631 19.8839H32.227C31.975 19.8839 31.849 19.7854 31.849 19.5884C31.849 19.4092 31.948 19.3017 32.146 19.2659L32.524 19.2122C32.902 19.1584 33.145 19.0509 33.253 18.8897C33.379 18.7285 33.442 18.4598 33.442 18.0836V9.64639C33.442 8.76863 33.28 8.15062 32.956 7.79235C32.632 7.43408 32.173 7.25494 31.579 7.25494C31.003 7.25494 30.481 7.42512 30.013 7.76548C29.563 8.08792 29.203 8.5268 28.933 9.08212C28.663 9.61952 28.528 10.2196 28.528 10.8824V18.0836C28.528 18.4598 28.582 18.7285 28.69 18.8897C28.816 19.0509 29.068 19.1495 29.446 19.1853L30.175 19.2659C30.373 19.3017 30.472 19.4003 30.472 19.5615C30.472 19.7764 30.337 19.8839 30.067 19.8839H25.504Z" fill="black"/>
<path d="M37.7585 19.8839C37.5425 19.8839 37.4345 19.7854 37.4345 19.5884C37.4345 19.4092 37.5335 19.3017 37.7315 19.2659L38.1095 19.2122C38.4875 19.1584 38.7665 19.0509 38.9465 18.8897C39.1265 18.7285 39.2165 18.4598 39.2165 18.0836V2.68702C39.2165 2.36457 39.1625 2.14066 39.0545 2.01526C38.9645 1.88987 38.7935 1.81821 38.5415 1.8003L37.9205 1.71969C37.7225 1.68386 37.6235 1.57638 37.6235 1.39725C37.6235 1.21811 37.7225 1.11063 37.9205 1.07481C38.4245 0.967325 38.8565 0.841931 39.2165 0.698623C39.5765 0.555316 39.8735 0.412008 40.1075 0.268701C40.3955 0.0895671 40.6115 0 40.7555 0C40.9535 0 41.0525 0.143307 41.0525 0.429922V18.0836C41.0525 18.4598 41.1065 18.7285 41.2145 18.8897C41.3405 19.033 41.5925 19.1316 41.9705 19.1853L42.5915 19.2659C42.7895 19.3017 42.8885 19.4092 42.8885 19.5884C42.8885 19.7854 42.7805 19.8839 42.5645 19.8839H37.7585Z" fill="black"/>
<path d="M48.3351 20.1258C47.4711 20.1258 46.6971 19.8391 46.0131 19.2659C45.3291 18.6927 44.7801 17.8866 44.3661 16.8476C43.9701 15.7907 43.7721 14.5726 43.7721 13.1933C43.7721 11.7781 43.9791 10.5331 44.3931 9.4583C44.8071 8.38349 45.3741 7.54156 46.0941 6.9325C46.8141 6.32345 47.6151 6.01892 48.4971 6.01892C49.5591 6.01892 50.4141 6.4578 51.0621 7.33556C51.7281 8.1954 52.0611 9.60161 52.0611 11.5542C52.0611 12.1453 51.8361 12.4409 51.3861 12.4409H46.2561C45.8961 12.4409 45.7161 12.6469 45.7161 13.0589C45.7161 14.9577 45.9951 16.3818 46.5531 17.3313C47.1111 18.2807 47.8221 18.7554 48.6861 18.7554C49.3701 18.7554 49.9281 18.5135 50.3601 18.0299C50.7921 17.5462 51.1431 16.7312 51.4131 15.5847C51.4671 15.3876 51.5841 15.2891 51.7641 15.2891C51.9801 15.2891 52.0611 15.4683 52.0071 15.8265C51.7191 17.4208 51.2601 18.5404 50.6301 19.1853C50.0001 19.8123 49.2351 20.1258 48.3351 20.1258ZM46.1751 11.7691H48.9021C49.7661 11.7691 50.1981 11.3213 50.1981 10.4256C50.1981 9.26125 50.0541 8.34766 49.7661 7.68487C49.4781 7.02207 49.0461 6.69067 48.4701 6.69067C47.7681 6.69067 47.1741 7.09372 46.6881 7.89983C46.2201 8.70593 45.9141 9.85239 45.7701 11.3392C45.7341 11.6258 45.8691 11.7691 46.1751 11.7691Z" fill="black"/>
<path d="M54.9897 25.3923C54.5037 25.3923 54.1167 25.2221 53.8287 24.8818C53.5407 24.5593 53.3967 24.1832 53.3967 23.7532C53.3967 23.4129 53.4957 23.1263 53.6937 22.8934C53.8917 22.6605 54.1617 22.5441 54.5037 22.5441C54.7917 22.5441 54.9987 22.6068 55.1247 22.7322C55.2507 22.8576 55.3407 23.0009 55.3947 23.1621C55.4487 23.3233 55.5027 23.4666 55.5567 23.592C55.6107 23.7174 55.7187 23.7801 55.8807 23.7801C56.0787 23.7801 56.2587 23.6368 56.4207 23.3502C56.5827 23.0815 56.8077 22.4993 57.0957 21.6036C57.2757 21.0662 57.3837 20.6005 57.4197 20.2064C57.4737 19.8123 57.4647 19.3913 57.3927 18.9435C57.3387 18.4956 57.2037 17.9493 56.9877 17.3044L54.0447 7.98044C53.9187 7.55052 53.7927 7.27286 53.6667 7.14746C53.5587 7.02207 53.3787 6.9325 53.1267 6.87876L52.7217 6.79815C52.4877 6.74441 52.3707 6.62797 52.3707 6.44884C52.3707 6.26971 52.4967 6.18014 52.7487 6.18014H57.2037C57.4557 6.18014 57.5817 6.26971 57.5817 6.44884C57.5817 6.64589 57.4647 6.76233 57.2307 6.79815L56.7987 6.85189C56.3667 6.90563 56.0877 7.01311 55.9617 7.17433C55.8537 7.31764 55.8627 7.58634 55.9887 7.98044L58.3647 15.8534C58.4187 16.0325 58.4997 16.1221 58.6077 16.1221C58.7337 16.1221 58.8237 16.0325 58.8777 15.8534L61.1727 8.4641C61.3167 7.98044 61.3527 7.62217 61.2808 7.3893C61.2267 7.13851 60.9747 6.97729 60.5247 6.90563L59.9577 6.79815C59.7237 6.74441 59.6067 6.62797 59.6067 6.44884C59.6067 6.26971 59.7327 6.18014 59.9847 6.18014H63.4137C63.6658 6.18014 63.7917 6.27866 63.7917 6.47571C63.7917 6.65484 63.6838 6.78024 63.4678 6.85189L63.2247 6.9325C62.9547 7.02207 62.7298 7.18329 62.5498 7.41617C62.3698 7.64904 62.1807 8.05209 61.9827 8.62532L57.9597 21.12C57.5637 22.3739 57.2037 23.3054 56.8797 23.9144C56.5737 24.5235 56.2767 24.9176 55.9887 25.0967C55.7007 25.2938 55.3677 25.3923 54.9897 25.3923Z" fill="black"/>
<path d="M73.7356 20.1258C72.7456 20.1258 71.8996 19.9108 71.1976 19.4809C70.4956 19.033 69.9556 18.4508 69.5776 17.7343C69.2176 16.9999 69.0376 16.2117 69.0376 15.3697C69.0376 14.0262 69.3976 12.8081 70.1176 11.7154C70.8556 10.6048 71.8186 9.68222 73.0066 8.94777C73.2046 8.82237 73.2406 8.65219 73.1146 8.43723C72.5926 7.57739 72.1966 6.82502 71.9266 6.18014C71.6566 5.51734 71.5216 4.83663 71.5216 4.13801C71.5216 3.40355 71.6926 2.74076 72.0346 2.14961C72.3946 1.55847 72.8986 1.08376 73.5466 0.725493C74.1946 0.367225 74.9416 0.18809 75.7876 0.18809C76.5436 0.18809 77.1826 0.358268 77.7046 0.698623C78.2266 1.03898 78.6226 1.4689 78.8926 1.98839C79.1626 2.48997 79.2976 3.0005 79.2976 3.51999C79.2976 4.43358 79.0096 5.26655 78.4336 6.01892C77.8576 6.77128 76.9306 7.47886 75.6526 8.14166C75.4366 8.28497 75.3916 8.45515 75.5176 8.65219L78.9466 14.1337C79.0366 14.2591 79.1266 14.3218 79.2166 14.3218C79.3066 14.3039 79.3876 14.2322 79.4596 14.1068C79.6576 13.6948 79.8466 13.2739 80.0266 12.8439C80.2246 12.3961 80.3776 12.0378 80.4856 11.7691C80.6836 11.2496 80.7466 10.8735 80.6746 10.6406C80.6026 10.3898 80.3866 10.2375 80.0266 10.1838L79.0816 10.0494C78.8476 10.0315 78.7306 9.92405 78.7306 9.727C78.7306 9.54787 78.8566 9.4583 79.1086 9.4583H83.8336C84.0856 9.4583 84.2116 9.55682 84.2116 9.75387C84.2116 9.95092 84.0946 10.0584 83.8606 10.0763L83.3476 10.1301C82.9516 10.1659 82.5736 10.3092 82.2136 10.56C81.8716 10.8108 81.5566 11.2765 81.2686 11.9572C81.1066 12.3513 80.9086 12.8171 80.6746 13.3545C80.4406 13.8919 80.1976 14.4114 79.9456 14.9129C79.8016 15.2175 79.8106 15.513 79.9726 15.7997L81.5386 18.2986C81.7186 18.5673 81.8716 18.7733 81.9976 18.9166C82.1416 19.0599 82.3216 19.1405 82.5376 19.1584L83.7256 19.2659C83.9416 19.2838 84.0496 19.3913 84.0496 19.5884C84.0496 19.7854 83.9236 19.8839 83.6716 19.8839H80.9176C80.5756 19.8839 80.3146 19.7406 80.1346 19.454L78.8926 17.5194C78.7306 17.2686 78.5596 17.2596 78.3796 17.4925C77.6416 18.4419 76.8766 19.1226 76.0846 19.5346C75.3106 19.9287 74.5276 20.1258 73.7356 20.1258ZM75.2476 7.57739C76.0756 7.07581 76.6876 6.46675 77.0836 5.75022C77.4976 5.03368 77.7046 4.3261 77.7046 3.62747C77.7046 3.19755 77.6416 2.77658 77.5156 2.36457C77.4076 1.95257 77.2096 1.61221 76.9216 1.34351C76.6336 1.05689 76.2106 0.913585 75.6526 0.913585C74.9146 0.913585 74.3206 1.19124 73.8706 1.74656C73.4386 2.30188 73.2226 2.91093 73.2226 3.57373C73.2226 4.16488 73.3306 4.72915 73.5466 5.26655C73.7626 5.80396 74.1586 6.52945 74.7346 7.44304C74.8426 7.67591 75.0136 7.7207 75.2476 7.57739ZM74.0866 18.8629C74.7166 18.8629 75.3466 18.7106 75.9766 18.4061C76.6066 18.1015 77.2276 17.5731 77.8396 16.8207C78.0376 16.5162 78.0466 16.2117 77.8666 15.9071L73.8976 9.67326C73.7356 9.4583 73.5556 9.42247 73.3576 9.56578C72.4936 10.1748 71.8546 10.9272 71.4406 11.8229C71.0266 12.7185 70.8196 13.7217 70.8196 14.8323C70.8196 15.943 71.0806 16.8924 71.6026 17.6806C72.1426 18.4688 72.9706 18.8629 74.0866 18.8629Z" fill="black"/>
<path d="M99.9802 20.1258C99.6922 20.1258 99.4492 19.9108 99.2512 19.4809L91.9342 3.68121C91.8802 3.55582 91.8082 3.50208 91.7182 3.51999C91.6462 3.5379 91.6102 3.61852 91.6102 3.76182V17.5731C91.6102 18.0747 91.6912 18.4598 91.8532 18.7285C92.0332 18.9793 92.3482 19.1405 92.7982 19.2122L93.1492 19.2659C93.3832 19.2838 93.5002 19.3913 93.5002 19.5884C93.5002 19.7854 93.3652 19.8839 93.0952 19.8839H89.2342C88.9642 19.8839 88.8292 19.7854 88.8292 19.5884C88.8292 19.3913 88.9462 19.2838 89.1802 19.2659L89.5312 19.2122C89.9992 19.1405 90.3232 18.9793 90.5032 18.7285C90.6832 18.4598 90.7732 18.0747 90.7732 17.5731V2.31083C90.7732 1.93465 90.7102 1.68386 90.5842 1.55847C90.4762 1.43308 90.2152 1.33455 89.8012 1.2629L89.1802 1.15542C88.9462 1.10168 88.8292 0.994195 88.8292 0.832974C88.8292 0.635927 88.9642 0.537403 89.2342 0.537403H92.1232C92.5732 0.537403 92.8882 0.734451 93.0682 1.12855L99.4402 15.0742C99.4942 15.1816 99.5572 15.2264 99.6292 15.2085C99.7192 15.1906 99.7642 15.1279 99.7642 15.0204V2.84824C99.7642 2.27501 99.6652 1.88091 99.4672 1.66595C99.2692 1.43307 99.0172 1.28977 98.7112 1.23603L98.2252 1.15542C97.9912 1.10168 97.8742 0.994195 97.8742 0.832974C97.8742 0.635927 98.0092 0.537403 98.2792 0.537403H102.14C102.41 0.537403 102.545 0.635927 102.545 0.832974C102.545 1.03002 102.428 1.1375 102.194 1.15542L101.843 1.20916C101.375 1.28081 101.051 1.43307 100.871 1.66595C100.691 1.88091 100.601 2.27501 100.601 2.84824V19.2659C100.601 19.5884 100.538 19.8123 100.412 19.9377C100.304 20.0631 100.16 20.1258 99.9802 20.1258Z" fill="black"/>
<path d="M105.74 3.62747C105.362 3.62747 105.038 3.49312 104.768 3.22442C104.516 2.95572 104.39 2.61536 104.39 2.20335C104.39 1.79134 104.516 1.45994 104.768 1.20916C105.038 0.940455 105.362 0.806104 105.74 0.806104C106.118 0.806104 106.433 0.940455 106.685 1.20916C106.937 1.45994 107.063 1.79134 107.063 2.20335C107.063 2.61536 106.937 2.95572 106.685 3.22442C106.433 3.49312 106.118 3.62747 105.74 3.62747ZM103.472 19.8839C103.202 19.8839 103.067 19.7854 103.067 19.5884C103.067 19.4271 103.184 19.3197 103.418 19.2659L103.742 19.2122C104.192 19.1405 104.48 19.033 104.606 18.8897C104.732 18.7285 104.795 18.4598 104.795 18.0836V9.05525C104.795 8.7328 104.741 8.51784 104.633 8.41036C104.543 8.28497 104.372 8.20436 104.12 8.16853L103.553 8.08792C103.319 8.07001 103.202 7.97148 103.202 7.79235C103.202 7.64904 103.346 7.55052 103.634 7.49678C104.192 7.40721 104.642 7.2639 104.984 7.06685C105.326 6.86981 105.659 6.62797 105.983 6.34136C106.145 6.18014 106.28 6.09953 106.388 6.09953C106.55 6.09953 106.631 6.20701 106.631 6.42197V18.0836C106.631 18.4598 106.685 18.7285 106.793 18.8897C106.901 19.0509 107.108 19.1495 107.414 19.1853L108.089 19.2659C108.287 19.3017 108.386 19.4003 108.386 19.5615C108.386 19.7764 108.251 19.8839 107.981 19.8839H103.472Z" fill="black"/>
<path d="M113.534 20.1258C112.742 20.1258 112.022 19.866 111.374 19.3465C110.744 18.8091 110.24 18.0478 109.862 17.0626C109.484 16.0773 109.295 14.904 109.295 13.5426C109.295 12.0199 109.52 10.6943 109.97 9.56578C110.438 8.43723 111.068 7.56843 111.86 6.95937C112.652 6.3324 113.534 6.01892 114.506 6.01892C115.334 6.01892 115.982 6.18014 116.45 6.50258C116.63 6.62797 116.72 6.82502 116.72 7.09372L116.774 10.3719C116.774 10.6406 116.666 10.7749 116.45 10.7749C116.252 10.7749 116.126 10.6585 116.072 10.4256C115.82 9.44039 115.577 8.67906 115.343 8.14166C115.109 7.60426 114.866 7.23703 114.614 7.03998C114.362 6.82502 114.083 6.71754 113.777 6.71754C113.417 6.71754 113.039 6.92355 112.643 7.33556C112.265 7.74756 111.941 8.41932 111.671 9.35082C111.419 10.2644 111.293 11.4736 111.293 12.9783C111.293 14.895 111.536 16.3371 112.022 17.3044C112.526 18.2717 113.174 18.7554 113.966 18.7554C114.596 18.7554 115.118 18.4956 115.532 17.9761C115.964 17.4567 116.333 16.5162 116.639 15.1548C116.693 14.9577 116.801 14.8592 116.963 14.8592C117.179 14.8592 117.26 15.0383 117.206 15.3966C117.008 16.6505 116.729 17.6268 116.369 18.3255C116.027 19.0062 115.613 19.4809 115.127 19.7496C114.659 20.0004 114.128 20.1258 113.534 20.1258Z" fill="black"/>
<path d="M118.552 19.8839C118.336 19.8839 118.228 19.7854 118.228 19.5884C118.228 19.4092 118.327 19.3017 118.525 19.2659L118.903 19.2122C119.281 19.1584 119.524 19.0509 119.632 18.8897C119.758 18.7285 119.821 18.4598 119.821 18.0836V2.68702C119.821 2.36457 119.767 2.14961 119.659 2.04213C119.569 1.91674 119.398 1.83613 119.146 1.8003L118.579 1.71969C118.381 1.68386 118.282 1.57638 118.282 1.39725C118.282 1.21811 118.381 1.11063 118.579 1.07481C119.083 0.967325 119.506 0.841931 119.848 0.698623C120.19 0.555316 120.478 0.412008 120.712 0.268701C121 0.0895671 121.216 0 121.36 0C121.558 0 121.657 0.143307 121.657 0.429922V11.6885C121.657 11.8677 121.729 11.9841 121.873 12.0378C122.035 12.0737 122.188 12.011 122.332 11.8497L125.491 8.4641C125.869 8.05209 126.022 7.71174 125.95 7.44304C125.896 7.15642 125.689 6.97729 125.329 6.90563L124.708 6.79815C124.474 6.74441 124.357 6.62797 124.357 6.44884C124.357 6.26971 124.483 6.18014 124.735 6.18014H129.379C129.631 6.18014 129.757 6.27866 129.757 6.47571C129.757 6.67276 129.64 6.78024 129.406 6.79815L129.163 6.82502C128.749 6.86085 128.335 7.02207 127.921 7.30869C127.507 7.57739 127.012 8.00731 126.436 8.59845L124.762 10.3719C124.384 10.7839 124.294 11.1869 124.492 11.581L127.894 18.0836C128.092 18.4419 128.308 18.7016 128.542 18.8629C128.776 19.0241 129.064 19.1405 129.406 19.2122L129.676 19.2659C129.892 19.3197 130 19.4271 130 19.5884C130 19.7854 129.874 19.8839 129.622 19.8839H124.924C124.672 19.8839 124.546 19.7854 124.546 19.5884C124.546 19.4092 124.663 19.3017 124.897 19.2659L125.356 19.2122C126.04 19.1226 126.184 18.6837 125.788 17.8955L123.223 12.9246C123.133 12.7454 122.998 12.6469 122.818 12.629C122.656 12.6111 122.503 12.6738 122.359 12.8171L122.062 13.1126C121.9 13.2739 121.792 13.4351 121.738 13.5963C121.684 13.7575 121.657 13.9367 121.657 14.1337V18.0836C121.657 18.4598 121.711 18.7285 121.819 18.8897C121.945 19.0509 122.197 19.1495 122.575 19.1853L123.304 19.2659C123.502 19.3017 123.601 19.4092 123.601 19.5884C123.601 19.7854 123.493 19.8839 123.277 19.8839H118.552Z" fill="black"/>
<path d="M27.7711 36.3046H27.0787L29.0815 30.8763H29.7633L31.7662 36.3046H31.0737L29.4437 31.735H29.4011L27.7711 36.3046ZM28.0268 34.1841H30.818V34.7673H28.0268V34.1841Z" fill="black"/>
<path d="M32.6158 36.3046V30.8763H34.4588C34.885 30.8763 35.2348 30.9487 35.5082 31.0936C35.7816 31.2367 35.984 31.4338 36.1154 31.6847C36.2468 31.9356 36.3125 32.221 36.3125 32.5408C36.3125 32.8606 36.2468 33.1442 36.1154 33.3916C35.984 33.639 35.7825 33.8334 35.5109 33.9748C35.2392 34.1143 34.8921 34.1841 34.4695 34.1841H32.978V33.5904H34.4482C34.7394 33.5904 34.9737 33.548 35.1513 33.4632C35.3306 33.3784 35.4603 33.2582 35.5401 33.1027C35.6218 32.9455 35.6627 32.7582 35.6627 32.5408C35.6627 32.3235 35.6218 32.1335 35.5401 31.9709C35.4585 31.8084 35.328 31.6829 35.1486 31.5946C34.9693 31.5044 34.7323 31.4594 34.4375 31.4594H33.2763V36.3046H32.6158ZM35.1833 33.8661L36.5256 36.3046H35.7585L34.4375 33.8661H35.1833Z" fill="black"/>
<path d="M41.8024 32.5726H41.1418C41.1028 32.3835 41.0344 32.2174 40.9368 32.0743C40.8409 31.9312 40.7237 31.811 40.5852 31.7138C40.4485 31.6149 40.2967 31.5407 40.1298 31.4912C39.9629 31.4417 39.7889 31.417 39.6078 31.417C39.2775 31.417 38.9783 31.5 38.7102 31.6661C38.4439 31.8322 38.2317 32.077 38.0737 32.4003C37.9174 32.7237 37.8393 33.1204 37.8393 33.5904C37.8393 34.0605 37.9174 34.4572 38.0737 34.7805C38.2317 35.1039 38.4439 35.3486 38.7102 35.5147C38.9783 35.6808 39.2775 35.7639 39.6078 35.7639C39.7889 35.7639 39.9629 35.7391 40.1298 35.6897C40.2967 35.6402 40.4485 35.5668 40.5852 35.4697C40.7237 35.3707 40.8409 35.2497 40.9368 35.1065C41.0344 34.9616 41.1028 34.7955 41.1418 34.6082H41.8024C41.7526 34.8857 41.6621 35.1339 41.5307 35.353C41.3993 35.5722 41.236 35.7586 41.0406 35.9123C40.8453 36.0643 40.626 36.18 40.3828 36.2595C40.1413 36.339 39.883 36.3788 39.6078 36.3788C39.1426 36.3788 38.7289 36.2657 38.3666 36.0395C38.0044 35.8133 37.7194 35.4917 37.5117 35.0747C37.304 34.6577 37.2001 34.1629 37.2001 33.5904C37.2001 33.0179 37.304 32.5231 37.5117 32.1061C37.7194 31.6891 38.0044 31.3675 38.3666 31.1413C38.7289 30.9151 39.1426 30.8021 39.6078 30.8021C39.883 30.8021 40.1413 30.8418 40.3828 30.9213C40.626 31.0008 40.8453 31.1175 41.0406 31.2712C41.236 31.4232 41.3993 31.6087 41.5307 31.8278C41.6621 32.0452 41.7526 32.2934 41.8024 32.5726Z" fill="black"/>
<path d="M42.8697 36.3046V30.8763H43.5302V33.2936H46.4386V30.8763H47.0991V36.3046H46.4386V33.8767H43.5302V36.3046H42.8697Z" fill="black"/>
<path d="M49.082 30.8763V36.3046H48.4215V30.8763H49.082Z" fill="black"/>
<path d="M50.108 31.4594V30.8763H54.1989V31.4594H52.4837V36.3046H51.8232V31.4594H50.108Z" fill="black"/>
<path d="M55.2183 36.3046V30.8763H58.5102V31.4594H55.8788V33.2936H58.3398V33.8767H55.8788V35.7215H58.5529V36.3046H55.2183Z" fill="black"/>
<path d="M64.09 32.5726H63.4295C63.3904 32.3835 63.322 32.2174 63.2244 32.0743C63.1285 31.9312 63.0113 31.811 62.8728 31.7138C62.7361 31.6149 62.5843 31.5407 62.4174 31.4912C62.2505 31.4417 62.0765 31.417 61.8954 31.417C61.5651 31.417 61.2659 31.5 60.9978 31.6661C60.7315 31.8322 60.5193 32.077 60.3613 32.4003C60.205 32.7237 60.1269 33.1204 60.1269 33.5904C60.1269 34.0605 60.205 34.4572 60.3613 34.7805C60.5193 35.1039 60.7315 35.3486 60.9978 35.5147C61.2659 35.6808 61.5651 35.7639 61.8954 35.7639C62.0765 35.7639 62.2505 35.7391 62.4174 35.6897C62.5843 35.6402 62.7361 35.5668 62.8728 35.4697C63.0113 35.3707 63.1285 35.2497 63.2244 35.1065C63.322 34.9616 63.3904 34.7955 63.4295 34.6082H64.09C64.0403 34.8857 63.9497 35.1339 63.8183 35.353C63.6869 35.5722 63.5236 35.7586 63.3283 35.9123C63.1329 36.0643 62.9137 36.18 62.6704 36.2595C62.4289 36.339 62.1706 36.3788 61.8954 36.3788C61.4302 36.3788 61.0165 36.2657 60.6542 36.0395C60.292 35.8133 60.007 35.4917 59.7993 35.0747C59.5916 34.6577 59.4877 34.1629 59.4877 33.5904C59.4877 33.0179 59.5916 32.5231 59.7993 32.1061C60.007 31.6891 60.292 31.3675 60.6542 31.1413C61.0165 30.9151 61.4302 30.8021 61.8954 30.8021C62.1706 30.8021 62.4289 30.8418 62.6704 30.9213C62.9137 31.0008 63.1329 31.1175 63.3283 31.2712C63.5236 31.4232 63.6869 31.6087 63.8183 31.8278C63.9497 32.0452 64.0403 32.2934 64.09 32.5726Z" fill="black"/>
<path d="M64.859 31.4594V30.8763H68.9499V31.4594H67.2347V36.3046H66.5742V31.4594H64.859Z" fill="black"/>
<path d="M72.9523 32.2333C72.9203 31.9648 72.7907 31.7562 72.5634 31.6078C72.3362 31.4594 72.0574 31.3852 71.7271 31.3852C71.4857 31.3852 71.2744 31.424 71.0933 31.5018C70.9139 31.5795 70.7737 31.6864 70.6724 31.8225C70.573 31.9586 70.5233 32.1132 70.5233 32.2864C70.5233 32.4313 70.5579 32.5558 70.6272 32.6601C70.6982 32.7626 70.7887 32.8483 70.8988 32.9172C71.0089 32.9843 71.1243 33.04 71.2451 33.0842C71.3658 33.1266 71.4768 33.161 71.578 33.1875L72.132 33.336C72.274 33.3731 72.432 33.4243 72.606 33.4897C72.7818 33.5551 72.9496 33.6443 73.1094 33.7574C73.271 33.8687 73.4042 34.0119 73.5089 34.1868C73.6137 34.3617 73.6661 34.5764 73.6661 34.8309C73.6661 35.1242 73.5888 35.3893 73.4343 35.626C73.2816 35.8628 73.0579 36.051 72.7632 36.1906C72.4702 36.3302 72.1142 36.4 71.6952 36.4C71.3046 36.4 70.9663 36.3373 70.6804 36.2118C70.3963 36.0864 70.1726 35.9114 70.0093 35.687C69.8477 35.4626 69.7562 35.202 69.7349 34.9051H70.4168C70.4345 35.1101 70.5038 35.2797 70.6245 35.414C70.747 35.5465 70.9015 35.6455 71.0879 35.7109C71.2761 35.7745 71.4786 35.8063 71.6952 35.8063C71.9473 35.8063 72.1737 35.7656 72.3743 35.6844C72.575 35.6013 72.7339 35.4864 72.8511 35.3398C72.9683 35.1914 73.0268 35.0182 73.0268 34.8203C73.0268 34.64 72.9762 34.4934 72.875 34.3803C72.7738 34.2672 72.6407 34.1753 72.4755 34.1046C72.3104 34.034 72.132 33.9721 71.9402 33.9191L71.269 33.7283C70.8429 33.6063 70.5055 33.4323 70.257 33.2061C70.0084 32.9799 69.8841 32.6839 69.8841 32.3182C69.8841 32.0142 69.9667 31.7492 70.1318 31.523C70.2987 31.2951 70.5224 31.1183 70.803 30.9929C71.0853 30.8657 71.4004 30.8021 71.7484 30.8021C72.1 30.8021 72.4125 30.8648 72.6859 30.9902C72.9594 31.1139 73.176 31.2836 73.3358 31.4991C73.4974 31.7147 73.5826 31.9595 73.5915 32.2333H72.9523Z" fill="black"/>
<path d="M80.5901 32.5726C80.5315 32.3941 80.4543 32.2342 80.3584 32.0929C80.2643 31.9497 80.1516 31.8278 80.0202 31.7271C79.8905 31.6264 79.7432 31.5495 79.578 31.4965C79.4129 31.4435 79.2318 31.417 79.0347 31.417C78.7116 31.417 78.4177 31.5 78.1531 31.6661C77.8886 31.8322 77.6782 32.077 77.5219 32.4003C77.3657 32.7237 77.2876 33.1204 77.2876 33.5904C77.2876 34.0605 77.3666 34.4572 77.5246 34.7805C77.6826 35.1039 77.8966 35.3486 78.1665 35.5147C78.4363 35.6808 78.74 35.7639 79.0773 35.7639C79.3898 35.7639 79.665 35.6976 79.903 35.5651C80.1427 35.4308 80.3291 35.2417 80.4623 34.9979C80.5972 34.7522 80.6647 34.4633 80.6647 34.1311L80.8671 34.1735H79.2265V33.5904H81.3039V34.1735C81.3039 34.6206 81.208 35.0093 81.0163 35.3398C80.8263 35.6702 80.5635 35.9264 80.2279 36.1084C79.8941 36.2887 79.5106 36.3788 79.0773 36.3788C78.5944 36.3788 78.17 36.2657 77.8042 36.0395C77.4402 35.8133 77.1562 35.4917 76.952 35.0747C76.7496 34.6577 76.6483 34.1629 76.6483 33.5904C76.6483 33.161 76.7061 32.7749 76.8215 32.4321C76.9387 32.0876 77.1038 31.7942 77.3168 31.5522C77.5299 31.3101 77.782 31.1245 78.0732 30.9955C78.3644 30.8665 78.6849 30.8021 79.0347 30.8021C79.3223 30.8021 79.5905 30.8453 79.839 30.9319C80.0894 31.0167 80.3122 31.1378 80.5075 31.2951C80.7046 31.4506 80.8689 31.637 81.0003 31.8543C81.1317 32.0699 81.2222 32.3093 81.2719 32.5726H80.5901Z" fill="black"/>
<path d="M82.4351 36.3046V30.8763H84.2782C84.7043 30.8763 85.0541 30.9487 85.3276 31.0936C85.601 31.2367 85.8034 31.4338 85.9348 31.6847C86.0662 31.9356 86.1319 32.221 86.1319 32.5408C86.1319 32.8606 86.0662 33.1442 85.9348 33.3916C85.8034 33.639 85.6019 33.8334 85.3302 33.9748C85.0586 34.1143 84.7114 34.1841 84.2888 34.1841H82.7974V33.5904H84.2675C84.5587 33.5904 84.7931 33.548 84.9707 33.4632C85.15 33.3784 85.2796 33.2582 85.3595 33.1027C85.4412 32.9455 85.482 32.7582 85.482 32.5408C85.482 32.3235 85.4412 32.1335 85.3595 31.9709C85.2778 31.8084 85.1473 31.6829 84.968 31.5946C84.7887 31.5044 84.5516 31.4594 84.2569 31.4594H83.0957V36.3046H82.4351ZM85.0026 33.8661L86.345 36.3046H85.5779L84.2569 33.8661H85.0026Z" fill="black"/>
<path d="M91.8348 33.5904C91.8348 34.1629 91.7309 34.6577 91.5232 35.0747C91.3154 35.4917 91.0305 35.8133 90.6682 36.0395C90.306 36.2657 89.8923 36.3788 89.4271 36.3788C88.9619 36.3788 88.5482 36.2657 88.186 36.0395C87.8238 35.8133 87.5388 35.4917 87.3311 35.0747C87.1233 34.6577 87.0194 34.1629 87.0194 33.5904C87.0194 33.0179 87.1233 32.5231 87.3311 32.1061C87.5388 31.6891 87.8238 31.3675 88.186 31.1413C88.5482 30.9151 88.9619 30.8021 89.4271 30.8021C89.8923 30.8021 90.306 30.9151 90.6682 31.1413C91.0305 31.3675 91.3154 31.6891 91.5232 32.1061C91.7309 32.5231 91.8348 33.0179 91.8348 33.5904ZM91.1956 33.5904C91.1956 33.1204 91.1166 32.7237 90.9585 32.4003C90.8023 32.077 90.5901 31.8322 90.322 31.6661C90.0557 31.5 89.7574 31.417 89.4271 31.417C89.0969 31.417 88.7977 31.5 88.5296 31.6661C88.2632 31.8322 88.051 32.077 87.893 32.4003C87.7368 32.7237 87.6586 33.1204 87.6586 33.5904C87.6586 34.0605 87.7368 34.4572 87.893 34.7805C88.051 35.1039 88.2632 35.3486 88.5296 35.5147C88.7977 35.6808 89.0969 35.7639 89.4271 35.7639C89.7574 35.7639 90.0557 35.6808 90.322 35.5147C90.5901 35.3486 90.8023 35.1039 90.9585 34.7805C91.1166 34.4572 91.1956 34.0605 91.1956 33.5904Z" fill="black"/>
<path d="M96.525 30.8763H97.1855V34.4704C97.1855 34.8415 97.0976 35.1728 96.9218 35.4644C96.7478 35.7542 96.5019 35.983 96.184 36.1509C95.8662 36.317 95.4933 36.4 95.0654 36.4C94.6375 36.4 94.2647 36.317 93.9468 36.1509C93.629 35.983 93.3822 35.7542 93.2064 35.4644C93.0324 35.1728 92.9454 34.8415 92.9454 34.4704V30.8763H93.6059V34.4174C93.6059 34.6824 93.6645 34.9184 93.7817 35.1251C93.8989 35.3301 94.0658 35.4917 94.2824 35.6101C94.5008 35.7268 94.7618 35.7851 95.0654 35.7851C95.3691 35.7851 95.6301 35.7268 95.8485 35.6101C96.0669 35.4917 96.2338 35.3301 96.3492 35.1251C96.4664 34.9184 96.525 34.6824 96.525 34.4174V30.8763Z" fill="black"/>
<path d="M98.5045 36.3046V30.8763H100.348C100.775 30.8763 101.125 30.9531 101.397 31.1069C101.67 31.2588 101.873 31.4647 102.004 31.7244C102.136 31.9842 102.201 32.274 102.201 32.5938C102.201 32.9137 102.136 33.2043 102.004 33.4659C101.875 33.7274 101.674 33.9359 101.402 34.0914C101.131 34.2451 100.783 34.322 100.358 34.322H99.0372V33.7389H100.337C100.63 33.7389 100.865 33.6885 101.043 33.5878C101.22 33.4871 101.349 33.351 101.429 33.1796C101.511 33.0064 101.551 32.8112 101.551 32.5938C101.551 32.3765 101.511 32.1821 101.429 32.0107C101.349 31.8393 101.219 31.705 101.04 31.6078C100.861 31.5089 100.623 31.4594 100.326 31.4594H99.165V36.3046H98.5045Z" fill="black"/>
</svg>
