<svg width="112" height="35" viewBox="0 0 112 35" fill="none" xmlns="http://www.w3.org/2000/svg">
<path d="M0 17.5C0 7.83502 7.80545 0 17.434 0H112V13.7879C112 25.503 102.539 35 90.8679 35H17.434C7.80545 35 0 27.165 0 17.5Z" fill="black"/>
<path d="M19.1575 24.6909C15.0156 24.6909 11.7824 21.403 11.7824 17.2667C11.7824 13.1303 15.0156 9.84242 19.1575 9.84242C21.6299 9.84242 23.9967 11.1576 25.0533 13.3848L22.5386 14.8061C21.8412 13.5758 20.7424 12.7909 19.0307 12.7909C16.6639 12.7909 14.9522 14.6788 14.9522 17.2667C14.9522 19.8545 16.6427 21.7424 19.0307 21.7424C20.7424 21.7424 21.8835 20.9576 22.5386 19.7273L25.0533 21.1485C23.9967 23.3758 21.6299 24.6909 19.1575 24.6909Z" fill="white"/>
<path d="M31.7471 24.6697C28.535 24.6697 26.0837 22.1667 26.0837 19.1121C26.0837 16.0788 28.5561 13.5758 31.7471 13.5758C34.9803 13.5758 37.4316 16.1 37.4316 19.1121C37.4316 22.1667 34.9591 24.6697 31.7471 24.6697ZM31.7471 21.8485C33.2897 21.8485 34.4308 20.6182 34.4308 19.1333C34.4308 17.6485 33.2897 16.4182 31.7471 16.4182C30.2044 16.4182 29.0844 17.6485 29.0844 19.1333C29.0844 20.6182 30.2044 21.8485 31.7471 21.8485Z" fill="white"/>
<path d="M39.8501 9.05757H42.8508V24.3939H39.8501V9.05757Z" fill="white"/>
<path d="M50.9186 24.6697C47.7066 24.6697 45.2552 22.1667 45.2552 19.1121C45.2552 16.0788 47.7277 13.5758 50.9186 13.5758C54.1519 13.5758 56.6032 16.1 56.6032 19.1121C56.6032 22.1667 54.1307 24.6697 50.9186 24.6697ZM50.9186 21.8485C52.4613 21.8485 53.6024 20.6182 53.6024 19.1333C53.6024 17.6485 52.4613 16.4182 50.9186 16.4182C49.376 16.4182 48.256 17.6485 48.256 19.1333C48.256 20.6182 49.376 21.8485 50.9186 21.8485Z" fill="white"/>
<path d="M61.5998 24.3939H58.599V18.3697C58.599 15.6758 60.1205 13.6182 63.2269 13.6182C63.9032 13.6182 64.6428 13.7455 65.1711 13.9788V16.9061C64.6639 16.6091 64.0511 16.4606 63.5016 16.4606C62.3182 16.4606 61.5998 17.2242 61.5998 18.4758V24.3939Z" fill="white"/>
<path d="M71.0777 24.3939H68.0769V16.4394H66.2173V13.8939H68.0769V13.3424C68.0769 10.8182 69.5773 8.84545 72.6414 8.84545C73.3388 8.84545 74.0573 8.97272 74.5856 9.20606V11.9848C74.0995 11.6879 73.4656 11.5394 72.9161 11.5394C71.775 11.5394 71.0777 12.1121 71.0777 13.3V13.8939H74.4165V16.4394H71.0777V24.3939Z" fill="white"/>
<path d="M81.0489 21.7636C82.5915 21.7636 83.3734 20.3848 83.3734 18.7515V13.8939H86.3741V19.1121C86.3741 22.1879 84.5568 24.6697 81.0489 24.6697C77.5621 24.6697 75.7447 22.1879 75.7447 19.1121V13.8939H78.7455V18.7727C78.7455 20.3848 79.5062 21.7636 81.0489 21.7636Z" fill="white"/>
<path d="M94.2221 16.5242C92.5315 16.5242 91.7707 17.903 91.7707 19.5152V24.3939H88.77V19.1545C88.77 16.1 90.5662 13.597 94.2221 13.597C97.8779 13.597 99.7164 16.0788 99.7164 19.1545V24.3939H96.7157V19.5152C96.7157 17.903 95.9338 16.5242 94.2221 16.5242Z" fill="white"/>
</svg>
