<svg width="117" height="42" viewBox="0 0 117 42" fill="none" xmlns="http://www.w3.org/2000/svg">
<path d="M0.3024 28.14C0.1008 28.14 0 28.0728 0 27.9384C0 27.804 0.09408 27.7166 0.28224 27.6763L0.58464 27.6158C0.85344 27.5621 1.05504 27.4344 1.18944 27.2328C1.32384 27.0178 1.43808 26.7221 1.53216 26.3458L4.65696 13.7458C4.68384 13.6114 4.72416 13.524 4.77792 13.4837C4.84512 13.4434 4.9056 13.4232 4.95936 13.4232C5.02656 13.4232 5.08704 13.4434 5.1408 13.4837C5.208 13.524 5.25504 13.6114 5.28192 13.7458L8.4672 26.5272C8.56128 26.9035 8.6688 27.1656 8.78976 27.3134C8.91072 27.4613 9.09888 27.5621 9.35424 27.6158L9.65664 27.6763C9.8448 27.7166 9.93888 27.804 9.93888 27.9384C9.93888 28.0728 9.83808 28.14 9.63648 28.14H6.18912C6.00096 28.14 5.90688 28.0661 5.90688 27.9182C5.90688 27.7704 6.02112 27.6898 6.2496 27.6763L6.63264 27.636C6.86112 27.6091 7.00224 27.5352 7.056 27.4142C7.1232 27.2933 7.1232 27.085 7.056 26.7893L6.28992 23.6645C6.20928 23.315 5.98752 23.1403 5.62464 23.1403H3.50784C3.1584 23.1403 2.93664 23.315 2.84256 23.6645L2.15712 26.3659C1.95552 27.132 2.15712 27.5554 2.76192 27.636L3.06432 27.6763C3.2928 27.7166 3.40704 27.7973 3.40704 27.9182C3.40704 28.0661 3.31296 28.14 3.1248 28.14H0.3024ZM3.44736 22.5355H5.66496C5.88 22.5355 5.96736 22.4213 5.92704 22.1928L4.6368 16.7899H4.536L3.18528 22.1928C3.14496 22.4213 3.23232 22.5355 3.44736 22.5355Z" fill="black"/>
<path d="M18.4518 28.3214C17.2825 28.3214 16.5366 27.5554 16.214 26.0232L15.7503 23.7854C15.6025 23.0597 15.4345 22.5086 15.2463 22.1323C15.0716 21.756 14.823 21.5006 14.5004 21.3662C14.1913 21.2318 13.7612 21.1646 13.2102 21.1646C13.022 21.1646 12.8742 21.2184 12.7666 21.3259C12.6591 21.42 12.6054 21.541 12.6054 21.6888V26.7288C12.6054 27.011 12.6591 27.2059 12.7666 27.3134C12.8742 27.4075 13.1161 27.4882 13.4924 27.5554L14.2383 27.6763C14.3862 27.7032 14.4601 27.7771 14.4601 27.8981C14.4601 28.0594 14.3593 28.14 14.1577 28.14H10.0652C9.8636 28.14 9.7628 28.0661 9.7628 27.9182C9.7628 27.7973 9.85015 27.7166 10.0249 27.6763L10.4886 27.5957C10.7708 27.5419 10.9522 27.468 11.0329 27.3739C11.127 27.2798 11.174 27.0917 11.174 26.8094V14.9554C11.174 14.6731 11.127 14.485 11.0329 14.3909C10.9522 14.2968 10.7708 14.2229 10.4886 14.1691L10.0249 14.0885C9.85015 14.0482 9.7628 13.9675 9.7628 13.8466C9.7628 13.6987 9.8636 13.6248 10.0652 13.6248H14.1577C14.9506 13.6248 15.6562 13.7794 16.2745 14.0885C16.8927 14.3976 17.3766 14.8277 17.726 15.3787C18.0754 15.9163 18.2502 16.5413 18.2502 17.2536C18.2502 18.1003 17.9948 18.8664 17.4841 19.5518C16.9734 20.2238 16.3282 20.701 15.5487 20.9832C15.4546 21.0101 15.4009 21.0571 15.3874 21.1243C15.3874 21.1781 15.4345 21.2251 15.5286 21.2654C15.9586 21.467 16.2946 21.7493 16.5366 22.1122C16.7919 22.475 16.9868 22.9589 17.1212 23.5637L17.5647 25.62C17.7126 26.3189 17.8873 26.8162 18.0889 27.1118C18.2905 27.4075 18.5458 27.5554 18.855 27.5554C18.9625 27.5554 19.0566 27.5419 19.1372 27.515C19.2313 27.4747 19.3455 27.4075 19.4799 27.3134C19.5874 27.2462 19.6882 27.2328 19.7823 27.2731C19.8764 27.3 19.9234 27.3672 19.9234 27.4747C19.9234 27.7032 19.7756 27.9048 19.4799 28.0795C19.1842 28.2408 18.8415 28.3214 18.4518 28.3214ZM13.9561 20.6606C14.87 20.6606 15.5622 20.3582 16.0326 19.7534C16.503 19.1352 16.7382 18.3154 16.7382 17.2939C16.7382 16.2994 16.4626 15.5266 15.9116 14.9755C15.374 14.411 14.6281 14.1288 13.6738 14.1288C12.9615 14.1288 12.6054 14.3976 12.6054 14.9352V19.5518C12.6054 20.291 13.0556 20.6606 13.9561 20.6606Z" fill="black"/>
<path d="M24.9893 28.3214C23.9947 28.3214 23.1211 28.0123 22.3685 27.3941C21.6293 26.7758 21.0513 25.909 20.6347 24.7934C20.2315 23.6645 20.0299 22.3339 20.0299 20.8018C20.0299 19.3234 20.2517 18.0331 20.6952 16.931C21.1521 15.8155 21.7569 14.9554 22.5096 14.3506C23.2757 13.7323 24.1224 13.4232 25.0497 13.4232C25.6008 13.4232 26.0846 13.477 26.5013 13.5845C26.9179 13.6786 27.2875 13.8062 27.6101 13.9675C27.7713 14.0616 27.852 14.2027 27.852 14.3909L27.9125 17.4552C27.9125 17.6837 27.8318 17.7979 27.6705 17.7979C27.5227 17.7979 27.4286 17.7106 27.3883 17.5358L27.1867 16.7899C26.9045 15.7416 26.5752 15.0158 26.1989 14.6126C25.836 14.2094 25.3992 14.0078 24.8885 14.0078C23.9477 14.0078 23.1614 14.5925 22.5297 15.7618C21.9115 16.9176 21.6024 18.5976 21.6024 20.8018C21.6024 22.307 21.7569 23.5771 22.0661 24.612C22.3886 25.6469 22.7985 26.4264 23.2958 26.9506C23.8065 27.4747 24.3441 27.7368 24.9086 27.7368C25.5134 27.7368 25.9973 27.5486 26.3601 27.1723C26.7365 26.796 27.0523 26.0702 27.3077 24.995L27.5496 24.0072C27.5899 23.8056 27.6974 23.7182 27.8721 23.7451C28.02 23.772 28.0939 23.8862 28.0939 24.0878L28.0133 27.3538C28.0133 27.5419 27.9259 27.683 27.7512 27.7771C27.4286 27.9384 27.0456 28.0661 26.6021 28.1602C26.172 28.2677 25.6344 28.3214 24.9893 28.3214Z" fill="black"/>
<path d="M58.3434 13.8498C62.1688 13.8498 65.2699 10.7494 65.2699 6.92488C65.2699 3.10037 62.1688 0 58.3434 0C54.5181 0 51.417 3.10037 51.417 6.92488C51.417 10.7494 54.5181 13.8498 58.3434 13.8498Z" fill="#191919"/>
<path d="M65.4938 20.5648C65.4798 20.7187 65.4798 20.8866 65.4798 21.0404C65.4938 22.8591 64.8221 24.6078 63.5348 25.8949L63.2409 26.1886C61.9676 27.4617 60.2325 28.1472 58.4274 28.1332C58.3994 28.1332 58.3574 28.1332 58.3294 28.1332C58.3014 28.1332 58.2595 28.1332 58.2315 28.1332C56.4264 28.1612 54.6913 27.4617 53.4179 26.1886L53.1241 25.8949C51.8367 24.6078 51.1651 22.8591 51.1791 21.0404C51.1791 20.8866 51.1791 20.7187 51.1651 20.5648C50.9692 17.1513 48.2546 14.3674 44.8403 14.0876C40.5445 13.7239 36.9903 17.2912 37.3401 21.586C37.62 24.9855 40.4186 27.6995 43.8188 27.9094C43.9727 27.9234 44.1407 27.9234 44.2946 27.9234C46.1137 27.9094 47.8628 28.5809 49.1501 29.8679L49.444 30.1617C50.7313 31.4488 51.403 33.1975 51.389 35.0161C51.389 35.2539 51.403 35.4918 51.417 35.7296C51.7248 39.0731 54.4674 41.7451 57.8257 41.983C61.8696 42.2628 65.2419 39.0591 65.2419 35.0721C65.2419 35.0441 65.2419 35.0021 65.2419 34.9741C65.2139 33.1695 65.9136 31.4348 67.1869 30.1617L67.4808 29.8679C68.7681 28.5809 70.5172 27.9094 72.3363 27.9234C72.4902 27.9234 72.6441 27.9234 72.812 27.9094C76.2263 27.7135 79.0109 24.9995 79.2907 21.586C79.6546 17.2912 76.0864 13.7378 71.7906 14.0876C68.4043 14.3674 65.6897 17.1653 65.4938 20.5648Z" fill="#191919"/>
<path d="M96.5257 28.3214C96.3107 28.3214 96.1293 28.1602 95.9814 27.8376L90.5181 15.9835C90.4777 15.8894 90.424 15.8491 90.3568 15.8626C90.303 15.876 90.2761 15.9365 90.2761 16.044V26.4062C90.2761 26.7826 90.3366 27.0715 90.4576 27.2731C90.592 27.4613 90.8272 27.5822 91.1632 27.636L91.4253 27.6763C91.6 27.6898 91.6873 27.7704 91.6873 27.9182C91.6873 28.0661 91.5865 28.14 91.3849 28.14H88.5021C88.3005 28.14 88.1997 28.0661 88.1997 27.9182C88.1997 27.7704 88.287 27.6898 88.4617 27.6763L88.7238 27.636C89.0733 27.5822 89.3152 27.4613 89.4496 27.2731C89.584 27.0715 89.6512 26.7826 89.6512 26.4062V14.9554C89.6512 14.6731 89.6041 14.485 89.5101 14.3909C89.4294 14.2968 89.2345 14.2229 88.9254 14.1691L88.4617 14.0885C88.287 14.0482 88.1997 13.9675 88.1997 13.8466C88.1997 13.6987 88.3005 13.6248 88.5021 13.6248H90.6592C90.9952 13.6248 91.2304 13.7726 91.3648 14.0683L96.1225 24.5314C96.1629 24.612 96.2099 24.6456 96.2637 24.6322C96.3309 24.6187 96.3645 24.5717 96.3645 24.491V15.3586C96.3645 14.9285 96.2905 14.6328 96.1427 14.4715C95.9949 14.2968 95.8067 14.1893 95.5782 14.149L95.2153 14.0885C95.0406 14.0482 94.9533 13.9675 94.9533 13.8466C94.9533 13.6987 95.0541 13.6248 95.2557 13.6248H98.1385C98.3401 13.6248 98.4409 13.6987 98.4409 13.8466C98.4409 13.9944 98.3536 14.075 98.1789 14.0885L97.9168 14.1288C97.5673 14.1826 97.3254 14.2968 97.191 14.4715C97.0566 14.6328 96.9894 14.9285 96.9894 15.3586V27.6763C96.9894 27.9182 96.9424 28.0862 96.8483 28.1803C96.7677 28.2744 96.6601 28.3214 96.5257 28.3214Z" fill="black"/>
<path d="M100.872 28.14C100.67 28.14 100.569 28.0661 100.569 27.9182C100.569 27.7704 100.657 27.6898 100.831 27.6763L101.739 27.5352C102.007 27.4949 102.189 27.4277 102.283 27.3336C102.377 27.2261 102.424 27.0312 102.424 26.749V21.9912C102.424 21.6955 102.357 21.4066 102.223 21.1243L99.259 14.915C99.1649 14.6866 99.0574 14.5118 98.9364 14.3909C98.8155 14.2699 98.6408 14.1826 98.4123 14.1288L98.2308 14.0885C98.0427 14.0482 97.9486 13.9608 97.9486 13.8264C97.9486 13.692 98.0494 13.6248 98.251 13.6248H101.698C101.887 13.6248 101.981 13.6987 101.981 13.8466C101.981 13.9944 101.866 14.075 101.638 14.0885L101.255 14.1288C101.026 14.1422 100.865 14.2162 100.771 14.3506C100.677 14.485 100.697 14.6933 100.831 14.9755L103.311 20.2574C103.365 20.3515 103.432 20.3986 103.513 20.3986C103.593 20.3986 103.661 20.3515 103.714 20.2574L106.093 15.3989C106.268 15.0494 106.308 14.7672 106.214 14.5522C106.134 14.3237 105.939 14.1893 105.63 14.149L105.186 14.0885C104.958 14.0482 104.843 13.9675 104.843 13.8466C104.843 13.6987 104.937 13.6248 105.126 13.6248H107.988C108.19 13.6248 108.291 13.692 108.291 13.8264C108.291 13.9608 108.197 14.0482 108.008 14.0885L107.807 14.1288C107.619 14.1691 107.451 14.2834 107.303 14.4715C107.168 14.6597 106.987 14.9755 106.759 15.419L104.118 20.7211C104.023 20.9093 103.956 21.0907 103.916 21.2654C103.876 21.4267 103.855 21.6149 103.855 21.8299V26.749C103.855 27.0312 103.903 27.2261 103.997 27.3336C104.104 27.4277 104.286 27.4949 104.541 27.5352L105.448 27.6763C105.623 27.6898 105.71 27.7704 105.71 27.9182C105.71 28.0661 105.609 28.14 105.408 28.14H100.872Z" fill="black"/>
<path d="M113.035 28.3214C112.04 28.3214 111.167 28.0123 110.414 27.3941C109.675 26.7758 109.097 25.909 108.68 24.7934C108.277 23.6645 108.076 22.3339 108.076 20.8018C108.076 19.3234 108.297 18.0331 108.741 16.931C109.198 15.8155 109.803 14.9554 110.555 14.3506C111.321 13.7323 112.168 13.4232 113.096 13.4232C113.647 13.4232 114.13 13.477 114.547 13.5845C114.964 13.6786 115.333 13.8062 115.656 13.9675C115.817 14.0616 115.898 14.2027 115.898 14.3909L115.958 17.4552C115.958 17.6837 115.878 17.7979 115.716 17.7979C115.568 17.7979 115.474 17.7106 115.434 17.5358L115.232 16.7899C114.95 15.7416 114.621 15.0158 114.245 14.6126C113.882 14.2094 113.445 14.0078 112.934 14.0078C111.993 14.0078 111.207 14.5925 110.576 15.7618C109.957 16.9176 109.648 18.5976 109.648 20.8018C109.648 22.307 109.803 23.5771 110.112 24.612C110.434 25.6469 110.844 26.4264 111.342 26.9506C111.852 27.4747 112.39 27.7368 112.954 27.7368C113.559 27.7368 114.043 27.5486 114.406 27.1723C114.782 26.796 115.098 26.0702 115.353 24.995L115.595 24.0072C115.636 23.8056 115.743 23.7182 115.918 23.7451C116.066 23.772 116.14 23.8862 116.14 24.0878L116.059 27.3538C116.059 27.5419 115.972 27.683 115.797 27.7771C115.474 27.9384 115.091 28.0661 114.648 28.1602C114.218 28.2677 113.68 28.3214 113.035 28.3214Z" fill="black"/>
</svg>
