<svg width="100" height="45" viewBox="0 0 100 45" fill="none" xmlns="http://www.w3.org/2000/svg">
<path d="M24.5898 24.2714C24.7758 24.2249 24.9501 24.2597 25.1129 24.376C25.2756 24.469 25.3686 24.6085 25.3918 24.7945C25.4383 24.9572 25.4151 25.1199 25.3221 25.2827C25.2291 25.4454 25.0896 25.6547 24.9036 25.9104C24.7176 26.1661 24.3805 26.5846 23.8923 27.1658C23.4274 27.7238 22.9508 28.2236 22.4625 28.6653C21.9743 29.107 21.3815 29.5023 20.684 29.851C20.0098 30.1997 19.3705 30.3741 18.766 30.3741C18.1616 30.3741 17.6385 30.2578 17.1968 30.0254C16.755 29.7929 16.4179 29.5371 16.1855 29.2582C15.953 28.9792 15.7554 28.5956 15.5926 28.1074C15.4299 27.5959 15.3253 27.2123 15.2788 26.9566C15.2323 26.6776 15.1742 26.3056 15.1044 25.8406C15.0812 25.5152 15.0579 25.2827 15.0347 25.1432C14.6859 25.5384 14.0582 26.4683 13.1515 27.933C12.0589 29.6999 11.2103 30.9553 10.6058 31.6992C10.0014 32.4199 9.42017 32.7803 8.8622 32.7803C8.55997 32.7803 8.31587 32.6641 8.12988 32.4316C7.92064 32.1991 7.79278 31.8155 7.74628 31.2808C7.72303 30.7461 7.74628 30.1184 7.81602 29.3977C7.88577 28.6537 8.02526 27.5494 8.2345 26.0847C8.67622 22.8765 8.82733 20.9817 8.68784 20.4005C7.89739 20.6562 6.83959 21.8884 5.51443 24.097C4.60774 25.5617 3.49181 27.6773 2.16665 30.4438C2.07366 30.6531 2.00391 30.8042 1.95742 30.8972C1.91092 30.9902 1.8528 31.1064 1.78305 31.2459C1.73656 31.3621 1.69006 31.4551 1.64356 31.5249C1.57382 31.6644 1.5157 31.769 1.4692 31.8387C1.44595 31.9085 1.39946 31.9782 1.32971 32.048C1.25996 32.141 1.19022 32.1991 1.12047 32.2223C1.02748 32.2688 0.922862 32.2921 0.80662 32.2921C0.481142 32.2921 0.248657 32.1293 0.109167 31.8039C-0.169815 31.1529 0.0859181 29.0954 0.876365 25.6314C1.71331 22.0279 2.53863 19.8193 3.35232 19.0056C3.58481 18.7731 3.84054 18.7034 4.11952 18.7964C4.42175 18.8661 4.60774 19.0637 4.67748 19.3892C4.79373 19.8309 4.66586 20.54 4.29389 21.5164C3.94516 22.4929 3.41045 23.3531 2.68974 24.097C2.31777 25.4222 2.00391 26.7938 1.74818 28.212C3.23608 25.1897 4.54962 22.9113 5.68879 21.3769C6.82797 19.8193 7.88577 19.0405 8.8622 19.0405C9.18768 19.0405 9.45504 19.1567 9.66428 19.3892C9.89676 19.6449 10.0363 20.075 10.0827 20.6795C10.1292 21.2607 10.106 21.9582 10.013 22.7718C9.94326 23.5623 9.80377 24.7247 9.59453 26.2591C9.19931 28.9792 9.03657 30.6531 9.10631 31.2808C9.59453 30.8856 10.5593 29.5371 12.0007 27.2355C12.9307 25.7476 13.5933 24.7596 13.9885 24.2714C14.407 23.7599 14.8138 23.5042 15.209 23.5042C15.395 23.5042 15.5578 23.5507 15.6972 23.6437C15.8367 23.7367 15.9414 23.8413 16.0111 23.9575C16.1041 24.0738 16.1855 24.2481 16.2552 24.4806C16.325 24.6898 16.3598 24.8758 16.3598 25.0386C16.3831 25.1781 16.4179 25.3873 16.4644 25.6663C16.6039 26.8287 16.8132 27.6773 17.0922 28.212C17.3944 28.7467 17.9523 29.0141 18.766 29.0141C19.417 29.0141 20.1377 28.7118 20.9281 28.1074C21.7186 27.5029 22.3695 26.8984 22.881 26.294C23.3925 25.6895 23.8226 25.1083 24.1713 24.5504C24.2875 24.4109 24.427 24.3179 24.5898 24.2714Z" fill="black"/>
<path d="M57.4412 10.6362C57.6272 10.6594 57.7783 10.7408 57.8945 10.8803C58.034 10.9965 58.0921 11.1593 58.0689 11.3685C58.0689 11.5545 57.9991 11.7172 57.8597 11.8567C57.7202 11.9729 57.5574 12.0194 57.3714 11.9962C54.4189 11.88 50.9781 11.9265 47.0491 12.1357C46.8631 12.7169 46.6888 13.2981 46.526 13.8793C44.2244 21.2956 42.6668 27.747 41.8531 33.2336C41.2254 37.4881 41.2486 40.0222 41.9228 40.8359C42.0391 40.9754 42.0856 41.1381 42.0623 41.3241C42.0623 41.5101 41.981 41.6612 41.8182 41.7774C41.702 41.8937 41.5625 41.9518 41.3998 41.9518C41.1905 41.9518 41.0162 41.8704 40.8767 41.7077C40.0862 40.7545 39.877 38.5343 40.249 35.047C40.5512 32.141 41.2254 28.5142 42.2716 24.1668C42.6668 22.4696 43.1201 20.726 43.6316 18.9359C43.1201 19.889 42.6203 20.7841 42.1321 21.621C40.9464 23.7599 39.8305 25.5965 38.7843 27.1309C37.7381 28.6653 36.8896 29.7929 36.2386 30.5136C35.6109 31.2343 35.0064 31.7922 34.4252 32.1875C33.844 32.5827 33.4488 32.8036 33.2396 32.85C33.0303 32.8965 32.7862 32.9198 32.5072 32.9198C31.7168 32.9198 31.1356 32.6408 30.7636 32.0828C30.5311 31.7806 30.3916 31.397 30.3451 30.9321C30.2986 30.4671 30.3219 29.944 30.4149 29.3628C30.5311 28.7816 30.6706 28.212 30.8333 27.654C31.0193 27.0728 31.2518 26.4102 31.5308 25.6663C30.4381 26.8752 29.4036 27.8633 28.4271 28.6305C27.4739 29.3977 26.544 29.7813 25.6373 29.7813C25.4513 29.7813 25.277 29.7696 25.1142 29.7464C24.9515 29.6999 24.7887 29.6418 24.626 29.572C24.4633 29.479 24.2889 29.3395 24.1029 29.1535C23.9169 28.9676 23.7891 28.7002 23.7193 28.3515C23.6263 27.9795 23.6031 27.5378 23.6496 27.0263C23.7193 26.2824 23.9634 25.4338 24.3819 24.4806C24.8004 23.5042 25.3235 22.5859 25.9512 21.7257C26.5789 20.8422 27.3344 20.0983 28.2179 19.4938C29.1013 18.8894 29.9848 18.5871 30.8682 18.5871C31.7749 18.5871 32.4375 18.9242 32.856 19.5984C33.0884 19.9704 33.2047 20.4005 33.2047 20.8887C33.2047 21.3769 33.1233 21.7605 32.9606 22.0395C32.8676 22.2255 32.7281 22.3418 32.5421 22.3882C32.3794 22.4347 32.205 22.4231 32.019 22.3534C31.8563 22.2604 31.74 22.1325 31.6703 21.9698C31.6238 21.7838 31.647 21.6094 31.74 21.4467C31.926 21.0515 31.9144 20.6795 31.7052 20.3308C31.5424 20.075 31.2634 19.9472 30.8682 19.9472C30.0313 19.9472 29.1595 20.3656 28.2528 21.2026C27.3461 22.0395 26.5905 23.016 25.986 24.1319C25.4048 25.2478 25.0794 26.2591 25.0096 27.1658C24.9166 27.933 25.0445 28.3515 25.3932 28.4212C25.6954 28.4677 26.0674 28.398 26.5091 28.212C26.9509 28.026 27.3461 27.7935 27.6948 27.5145C28.0668 27.2355 28.4969 26.8519 28.9851 26.3637C29.4966 25.8523 29.8802 25.457 30.1359 25.1781C30.3916 24.8758 30.7287 24.4922 31.1472 24.0273C31.7284 23.3531 32.1236 22.923 32.3329 22.737C32.5653 22.5277 32.7862 22.4231 32.9954 22.4231C33.2279 22.3999 33.4139 22.4696 33.5534 22.6324C33.6929 22.7718 33.7626 22.9462 33.7626 23.1554C33.7626 23.3647 33.7161 23.5972 33.6232 23.8529C33.5534 24.1086 33.3907 24.562 33.1349 25.2129C31.833 28.6305 31.4146 30.6647 31.8795 31.3156C31.9958 31.4784 32.205 31.5598 32.5072 31.5598C32.6467 31.5598 32.7862 31.5365 32.9257 31.49C33.0884 31.4435 33.3093 31.3273 33.5883 31.1413C33.8673 30.9553 34.1579 30.7112 34.4601 30.409C34.7856 30.1067 35.1692 29.6883 35.6109 29.1535C36.0759 28.6188 36.5641 27.9911 37.0755 27.2704C37.587 26.5497 38.1798 25.6547 38.8541 24.5852C39.5283 23.4925 40.2257 22.2836 40.9464 20.9585C42.4343 18.3314 43.9455 15.4253 45.4799 12.2403C41.0394 12.5425 37.2499 13.0772 34.1114 13.8444C32.7397 14.7279 31.4378 15.1696 30.2056 15.1696C29.9034 15.1696 29.6825 15.1347 29.5431 15.065C29.2873 14.9023 29.1711 14.6698 29.1943 14.3675C29.2176 14.0653 29.4036 13.8561 29.7523 13.7398C33.658 12.2287 39.0982 11.2639 46.0727 10.8454C47.0724 7.7766 47.9791 5.39364 48.7928 3.6965C49.281 2.65032 49.6878 1.94125 50.0133 1.56927C50.3388 1.1973 50.6643 1.01131 50.9897 1.01131C51.3385 1.01131 51.5942 1.16242 51.7569 1.46465C52.2452 2.3016 50.9432 5.39364 47.8512 10.7408C51.4082 10.5548 54.6049 10.5199 57.4412 10.6362Z" fill="black"/>
<path d="M64.8388 24.5504C65.0248 24.5039 65.1992 24.5271 65.3619 24.6201C65.5479 24.6898 65.6641 24.8177 65.7106 25.0037C65.7571 25.1897 65.7339 25.364 65.6409 25.5268C65.0597 26.6195 64.3738 27.7354 63.5834 28.8746C61.9328 31.2459 60.5611 32.4316 59.4684 32.4316C58.957 32.4316 58.5269 32.2456 58.1781 31.8736C57.7132 31.3854 57.4458 30.5368 57.3761 29.3279C57.3063 28.0957 57.3412 26.8287 57.4807 25.5268C57.6667 23.0392 57.6434 21.6559 57.4109 21.3769C56.8762 21.4234 56.0044 22.2836 54.7955 23.9575C53.9818 25.0734 52.7264 27.0496 51.0292 29.8859C49.4483 32.4664 48.3092 34.2101 47.6117 35.1168C46.9375 36.0467 46.3331 36.5117 45.7983 36.5117C45.4031 36.5117 45.1358 36.3024 44.9963 35.884C44.9265 35.7212 44.8917 35.5004 44.8917 35.2214C44.8917 33.1058 46.5423 26.7125 49.8436 16.0414C51.0757 12.0194 52.2382 8.40431 53.3308 5.19603C53.8423 3.73138 54.2492 2.56895 54.5514 1.70876C54.8304 0.988059 55.0396 0.52309 55.1791 0.313854C55.3186 0.104618 55.5162 0 55.7719 0C56.0742 0 56.295 0.139491 56.4345 0.418473C56.7135 0.953187 56.4694 2.46434 55.7022 4.95192C54.9117 7.57899 54.005 9.55511 52.9821 10.8803C52.9356 10.9268 52.8891 10.9733 52.8426 11.0198C52.1219 13.2981 51.4012 15.6113 50.6805 17.9594C48.0534 26.5846 46.5888 32.141 46.2866 34.6286C46.891 33.9078 48.0767 32.0945 49.8436 29.1884C51.7964 25.9569 53.3308 23.6204 54.4468 22.179C55.5627 20.7376 56.5624 20.0169 57.4458 20.0169C57.8178 20.0169 58.1316 20.1564 58.3874 20.4354C58.7128 20.7841 58.8988 21.4118 58.9453 22.3185C59.0151 23.2019 58.9802 24.3062 58.8407 25.6314C58.6315 28.7234 58.7361 30.502 59.1546 30.9669C59.2476 31.0367 59.3522 31.0715 59.4684 31.0715C59.7939 31.0715 60.2472 30.7577 60.8285 30.13C61.4329 29.5023 62.049 28.7234 62.6767 27.7935C63.3277 26.8636 63.9205 25.8871 64.4552 24.8642C64.5482 24.7015 64.6761 24.5968 64.8388 24.5504Z" fill="black"/>
<path d="M76.668 24.655C76.854 24.6317 77.0167 24.6898 77.1562 24.8293C77.2957 24.9456 77.3655 25.0967 77.3655 25.2827C77.3887 25.4687 77.3422 25.6314 77.226 25.7709C77.04 25.9801 76.7959 26.2475 76.4936 26.573C76.1914 26.8984 75.6334 27.4215 74.8198 28.1422C74.0061 28.8629 73.204 29.5023 72.4135 30.0602C71.6231 30.5949 70.6815 31.0832 69.5889 31.5249C68.5194 31.9666 67.5081 32.1875 66.5549 32.1875C65.532 32.1875 64.7299 31.8852 64.1487 31.2808C63.5675 30.6763 63.2769 29.8394 63.2769 28.7699C63.2769 27.0031 63.893 25.1781 65.1252 23.2949C65.7529 22.3185 66.4271 21.5629 67.1478 21.0282C67.8685 20.4935 68.5659 20.2261 69.2401 20.2261C69.9376 20.2261 70.4723 20.4354 70.8443 20.8539C71.193 21.2258 71.3674 21.7024 71.3674 22.2836C71.3674 23.2833 70.9605 24.283 70.1468 25.2827C69.3564 26.2824 68.4962 26.7822 67.5662 26.7822C66.6363 26.7822 65.9272 26.3637 65.439 25.5268C64.9043 26.7125 64.6369 27.7935 64.6369 28.7699C64.6369 29.4442 64.788 29.9556 65.0903 30.3043C65.3925 30.6531 65.8807 30.8274 66.5549 30.8274C67.1594 30.8274 67.7987 30.7228 68.4729 30.5136C69.1704 30.2811 69.8097 30.0021 70.3909 29.6766C70.9721 29.3512 71.565 28.9676 72.1694 28.5258C72.7971 28.0609 73.3318 27.6424 73.7736 27.2704C74.2153 26.8752 74.6338 26.48 75.029 26.0847C75.4475 25.6895 75.7264 25.4105 75.8659 25.2478C76.0054 25.0851 76.11 24.9688 76.1798 24.8991C76.3193 24.7596 76.482 24.6782 76.668 24.655ZM69.2401 21.5862C68.7984 21.5862 68.2986 21.8187 67.7406 22.2836C67.2059 22.7486 66.6944 23.3531 66.2062 24.097C66.2992 24.1668 66.3573 24.2481 66.3806 24.3411C66.6363 25.0618 67.0315 25.4222 67.5662 25.4222C67.915 25.4222 68.2753 25.2478 68.6473 24.8991C69.0425 24.5271 69.368 24.097 69.6237 23.6088C69.8795 23.1206 70.0073 22.6789 70.0073 22.2836C70.0073 22.0511 69.9492 21.8768 69.833 21.7605C69.74 21.6443 69.5424 21.5862 69.2401 21.5862Z" fill="black"/>
<path d="M87.3676 32.5711C86.4377 33.5707 85.4845 34.0706 84.5081 34.0706C83.0899 34.0706 82.0205 33.315 81.2998 31.8039C80.9278 31.0134 80.6837 30.0835 80.5675 29.0141C78.8471 30.9204 77.3127 31.8736 75.9643 31.8736C75.1971 31.8736 74.7205 31.5016 74.5345 30.7577C74.2555 29.7348 74.7205 27.9679 75.9294 25.457C77.0686 23.1322 77.859 21.8419 78.3008 21.5862C78.6262 21.4002 78.9168 21.4351 79.1726 21.6908C79.3818 21.9 79.4632 22.2255 79.4167 22.6672C79.3469 23.1787 79.1493 23.7018 78.8238 24.2365C78.5216 24.7712 78.1031 25.1897 77.5684 25.4919C77.5219 25.5384 77.4638 25.5617 77.3941 25.5617C77.2081 25.9336 77.0337 26.2824 76.871 26.6078C76.499 27.4448 76.22 28.1771 76.034 28.8048C75.848 29.4325 75.7667 29.851 75.7899 30.0602C75.8132 30.2462 75.8364 30.3973 75.8597 30.5136C75.8829 30.5136 75.9178 30.5136 75.9643 30.5136C76.5687 30.5136 77.3011 30.1532 78.1613 29.4325C79.0215 28.7118 79.8003 27.8749 80.4977 26.9217C80.6372 24.8991 81.1719 23.8878 82.1019 23.8878C82.3809 23.8878 82.6133 23.9924 82.7993 24.2016C82.9388 24.3644 83.0086 24.5736 83.0086 24.8293C83.0086 25.4105 82.625 26.2591 81.8578 27.375C81.8113 28.7467 81.9973 29.944 82.4157 30.9669C82.9039 32.1293 83.6014 32.7106 84.5081 32.7106C85.0893 32.7106 85.7054 32.3618 86.3563 31.6644C87.2165 30.7112 87.9372 29.3744 88.5184 27.654C89.0996 25.9104 89.3321 24.1551 89.2159 22.3882C89.2159 22.2953 89.2159 22.2023 89.2159 22.1093C89.2159 22.086 89.2159 22.0628 89.2159 22.0395C89.2159 22.0628 89.2159 22.0744 89.2159 22.0744C89.2159 21.8652 89.2391 21.714 89.2856 21.621C89.4716 21.3421 89.7157 21.2374 90.018 21.3072C90.3434 21.3769 90.5178 21.5862 90.5411 21.9349C90.5643 22.0279 90.5759 22.1209 90.5759 22.2139C90.7387 23.2601 91.2036 24.0389 91.9708 24.5504C93.3192 25.4338 95.4116 25.2943 98.2479 24.1319C98.3642 24.0854 98.4804 24.0738 98.5966 24.097C98.7129 24.1203 98.8175 24.1668 98.9105 24.2365C99.0267 24.3062 99.1081 24.3992 99.1546 24.5155C99.2243 24.6782 99.2243 24.8526 99.1546 25.0386C99.0849 25.2013 98.957 25.3176 98.771 25.3873C94.935 26.9682 92.1684 26.8636 90.4713 25.0734C90.2853 26.5381 89.9133 27.9446 89.3554 29.293C88.8207 30.6182 88.1581 31.7109 87.3676 32.5711Z" fill="black"/>
<path d="M64.3803 45C63.8453 45 63.3847 44.8737 62.9983 44.6211C62.6119 44.3684 62.3147 44.0204 62.1066 43.5771C61.8986 43.1338 61.7946 42.6273 61.7946 42.0576C61.7946 41.4781 61.9011 40.9666 62.1141 40.5233C62.3296 40.0775 62.6292 39.7295 63.0131 39.4793C63.3995 39.2267 63.8503 39.1004 64.3654 39.1004C64.7667 39.1004 65.1283 39.1747 65.4503 39.3233C65.7722 39.4719 66.036 39.6799 66.2416 39.9474C66.4472 40.2149 66.5747 40.527 66.6242 40.8836H65.7475C65.6806 40.6236 65.532 40.3932 65.3017 40.1926C65.0738 39.9895 64.7667 39.888 64.3803 39.888C64.0385 39.888 63.7388 39.9771 63.4812 40.1555C63.2261 40.3313 63.0268 40.5802 62.8831 40.9022C62.7419 41.2217 62.6713 41.5969 62.6713 42.0279C62.6713 42.4688 62.7407 42.8527 62.8794 43.1796C63.0206 43.5065 63.2187 43.7604 63.4738 43.9412C63.7314 44.122 64.0336 44.2124 64.3803 44.2124C64.6082 44.2124 64.815 44.1728 65.0007 44.0935C65.1865 44.0142 65.3438 43.9003 65.4725 43.7517C65.6013 43.6031 65.693 43.4248 65.7475 43.2167H66.6242C66.5747 43.5536 66.4521 43.857 66.2564 44.1269C66.0633 44.3944 65.8069 44.6074 65.4874 44.7659C65.1704 44.922 64.8014 45 64.3803 45Z" fill="black"/>
<path d="M70.2242 45C69.709 45 69.257 44.8774 68.8682 44.6322C68.4818 44.387 68.1796 44.044 67.9617 43.6031C67.7462 43.1622 67.6385 42.6471 67.6385 42.0576C67.6385 41.4632 67.7462 40.9443 67.9617 40.501C68.1796 40.0576 68.4818 39.7134 68.8682 39.4682C69.257 39.223 69.709 39.1004 70.2242 39.1004C70.7394 39.1004 71.1901 39.223 71.5765 39.4682C71.9654 39.7134 72.2675 40.0576 72.483 40.501C72.701 40.9443 72.8099 41.4632 72.8099 42.0576C72.8099 42.6471 72.701 43.1622 72.483 43.6031C72.2675 44.044 71.9654 44.387 71.5765 44.6322C71.1901 44.8774 70.7394 45 70.2242 45ZM70.2242 44.2124C70.6155 44.2124 70.9375 44.1121 71.1901 43.9115C71.4428 43.7108 71.6298 43.4471 71.7511 43.1201C71.8725 42.7932 71.9332 42.439 71.9332 42.0576C71.9332 41.6762 71.8725 41.3208 71.7511 40.9914C71.6298 40.662 71.4428 40.3957 71.1901 40.1926C70.9375 39.9895 70.6155 39.888 70.2242 39.888C69.8329 39.888 69.5109 39.9895 69.2583 40.1926C69.0056 40.3957 68.8186 40.662 68.6973 40.9914C68.5759 41.3208 68.5152 41.6762 68.5152 42.0576C68.5152 42.439 68.5759 42.7932 68.6973 43.1201C68.8186 43.4471 69.0056 43.7108 69.2583 43.9115C69.5109 44.1121 69.8329 44.2124 70.2242 44.2124Z" fill="black"/>
<path d="M76.4665 45C75.9514 45 75.4994 44.8774 75.1105 44.6322C74.7241 44.387 74.422 44.044 74.204 43.6031C73.9886 43.1622 73.8808 42.6471 73.8808 42.0576C73.8808 41.4632 73.9886 40.9443 74.204 40.501C74.422 40.0576 74.7241 39.7134 75.1105 39.4682C75.4994 39.223 75.9514 39.1004 76.4665 39.1004C76.9817 39.1004 77.4325 39.223 77.8188 39.4682C78.2077 39.7134 78.5099 40.0576 78.7253 40.501C78.9433 40.9443 79.0523 41.4632 79.0523 42.0576C79.0523 42.6471 78.9433 43.1622 78.7253 43.6031C78.5099 44.044 78.2077 44.387 77.8188 44.6322C77.4325 44.8774 76.9817 45 76.4665 45ZM76.4665 44.2124C76.8579 44.2124 77.1798 44.1121 77.4325 43.9115C77.6851 43.7108 77.8721 43.4471 77.9935 43.1201C78.1148 42.7932 78.1755 42.439 78.1755 42.0576C78.1755 41.6762 78.1148 41.3208 77.9935 40.9914C77.8721 40.662 77.6851 40.3957 77.4325 40.1926C77.1798 39.9895 76.8579 39.888 76.4665 39.888C76.0752 39.888 75.7532 39.9895 75.5006 40.1926C75.248 40.3957 75.061 40.662 74.9396 40.9914C74.8183 41.3208 74.7576 41.6762 74.7576 42.0576C74.7576 42.439 74.8183 42.7932 74.9396 43.1201C75.061 43.4471 75.248 43.7108 75.5006 43.9115C75.7532 44.1121 76.0752 44.2124 76.4665 44.2124Z" fill="black"/>
<path d="M81.0296 44.9406C80.8464 44.9406 80.6891 44.8749 80.5578 44.7437C80.4266 44.6124 80.3609 44.4551 80.3609 44.2718C80.3609 44.0886 80.4266 43.9313 80.5578 43.8C80.6891 43.6687 80.8464 43.6031 81.0296 43.6031C81.2129 43.6031 81.3702 43.6687 81.5015 43.8C81.6327 43.9313 81.6984 44.0886 81.6984 44.2718C81.6984 44.3932 81.6674 44.5046 81.6055 44.6062C81.5461 44.7077 81.4656 44.7895 81.364 44.8514C81.2649 44.9108 81.1535 44.9406 81.0296 44.9406Z" fill="black"/>
</svg>
