<svg width="130" height="44" viewBox="0 0 130 44" fill="none" xmlns="http://www.w3.org/2000/svg">
<path d="M39.6068 14.3503V28.7005L26.413 35.8757V21.5254L39.6068 14.3503Z" fill="black"/>
<path d="M26.413 21.5254V35.8757L13.1938 43.0508V28.7005L26.413 21.5254Z" fill="black"/>
<path d="M13.1938 43.0508L0 35.8757V21.5254L13.1938 28.7005V43.0508Z" fill="black"/>
<path d="M0 7.17514L13.1938 0L26.413 7.17514L13.1938 14.3503L0 7.17514Z" fill="black"/>
<path d="M13.1938 28.7005L0 21.5254V7.17514L13.1938 14.3503V28.7005Z" fill="black"/>
<path d="M58.1479 18.5119V17.191L66.2493 5.09761H58.0599V3.4832H68.4214V4.80408L60.3201 16.8974H68.5095V18.5119H58.1479Z" fill="black"/>
<path d="M81.4247 3.4832H83.2446V13.4338C83.2446 14.4612 83.0025 15.3784 82.5181 16.1856C82.0387 16.9879 81.3611 17.6215 80.4855 18.0862C79.6098 18.5461 78.5824 18.776 77.4034 18.776C76.2244 18.776 75.1971 18.5461 74.3214 18.0862C73.4457 17.6215 72.7657 16.9879 72.2813 16.1856C71.8019 15.3784 71.5622 14.4612 71.5622 13.4338V3.4832H73.3821V13.287C73.3821 14.0209 73.5435 14.674 73.8664 15.2463C74.1893 15.8138 74.6491 16.2615 75.246 16.5892C75.8477 16.9121 76.5668 17.0736 77.4034 17.0736C78.24 17.0736 78.9591 16.9121 79.5608 16.5892C80.1626 16.2615 80.6224 15.8138 80.9404 15.2463C81.2633 14.674 81.4247 14.0209 81.4247 13.287V3.4832Z" fill="black"/>
<path d="M86.8789 3.4832H89.051L94.1584 15.9582H94.3345L99.4419 3.4832H101.614V18.5119H99.9115V7.0936H99.7648L95.0683 18.5119H93.4245L88.7281 7.0936H88.5813V18.5119H86.8789V3.4832Z" fill="black"/>
<path d="M105.879 18.5119H103.971L109.49 3.4832H111.368L116.887 18.5119H114.979L110.488 5.86078H110.37L105.879 18.5119ZM106.584 12.6413H114.274V14.2557H106.584V12.6413Z" fill="black"/>
<path d="M119.228 18.5119V3.4832H124.306C125.48 3.4832 126.443 3.68378 127.197 4.08493C127.95 4.4812 128.508 5.02667 128.87 5.72136C129.232 6.41604 129.413 7.20612 129.413 8.0916C129.413 8.97707 129.232 9.76226 128.87 10.4472C128.508 11.1321 127.953 11.6702 127.204 12.0616C126.456 12.448 125.499 12.6413 124.335 12.6413H120.226V10.9975H124.276C125.079 10.9975 125.724 10.8801 126.213 10.6453C126.708 10.4105 127.065 10.0778 127.285 9.6473C127.51 9.21189 127.622 8.69333 127.622 8.0916C127.622 7.48986 127.51 6.96396 127.285 6.51388C127.06 6.0638 126.7 5.71646 126.206 5.47186C125.712 5.22236 125.059 5.09761 124.247 5.09761H121.047V18.5119H119.228ZM126.302 11.7607L130 18.5119H127.887L124.247 11.7607H126.302Z" fill="black"/>
<path d="M70.7403 28.844H68.9204C68.8128 28.3206 68.6245 27.8607 68.3554 27.4645C68.0912 27.0682 67.7683 26.7355 67.3868 26.4665C67.0101 26.1925 66.5918 25.987 66.1319 25.8501C65.6721 25.7131 65.1926 25.6446 64.6936 25.6446C63.7837 25.6446 62.9594 25.8745 62.2207 26.3344C61.4868 26.7942 60.9022 27.4718 60.4668 28.3671C60.0363 29.2623 59.8211 30.3606 59.8211 31.6619C59.8211 32.9632 60.0363 34.0615 60.4668 34.9568C60.9022 35.852 61.4868 36.5296 62.2207 36.9895C62.9594 37.4493 63.7837 37.6792 64.6936 37.6792C65.1926 37.6792 65.6721 37.6108 66.1319 37.4738C66.5918 37.3368 67.0101 37.1338 67.3868 36.8647C67.7683 36.5907 68.0912 36.2556 68.3554 35.8594C68.6245 35.4582 68.8128 34.9984 68.9204 34.4798H70.7403C70.6033 35.2479 70.3538 35.9352 69.9918 36.5418C69.6298 37.1484 69.1797 37.6646 68.6416 38.0902C68.1034 38.5109 67.4993 38.8313 66.829 39.0515C66.1637 39.2716 65.4519 39.3817 64.6936 39.3817C63.4119 39.3817 62.272 39.0686 61.274 38.4424C60.276 37.8162 59.4908 36.9259 58.9185 35.7713C58.3461 34.6168 58.0599 33.247 58.0599 31.6619C58.0599 30.0769 58.3461 28.7071 58.9185 27.5525C59.4908 26.398 60.276 25.5076 61.274 24.8814C62.272 24.2552 63.4119 23.9421 64.6936 23.9421C65.4519 23.9421 66.1637 24.0522 66.829 24.2723C67.4993 24.4925 68.1034 24.8154 68.6416 25.241C69.1797 25.6617 69.6298 26.1754 69.9918 26.782C70.3538 27.3837 70.6033 28.0711 70.7403 28.844Z" fill="black"/>
<path d="M86.3615 31.6619C86.3615 33.247 86.0753 34.6168 85.503 35.7713C84.9306 36.9259 84.1454 37.8162 83.1474 38.4424C82.1494 39.0686 81.0095 39.3817 79.7278 39.3817C78.446 39.3817 77.3062 39.0686 76.3082 38.4424C75.3102 37.8162 74.525 36.9259 73.9526 35.7713C73.3802 34.6168 73.094 33.247 73.094 31.6619C73.094 30.0769 73.3802 28.7071 73.9526 27.5525C74.525 26.398 75.3102 25.5076 76.3082 24.8814C77.3062 24.2552 78.446 23.9421 79.7278 23.9421C81.0095 23.9421 82.1494 24.2552 83.1474 24.8814C84.1454 25.5076 84.9306 26.398 85.503 27.5525C86.0753 28.7071 86.3615 30.0769 86.3615 31.6619ZM84.6004 31.6619C84.6004 30.3606 84.3827 29.2623 83.9473 28.3671C83.5167 27.4718 82.9321 26.7942 82.1934 26.3344C81.4596 25.8745 80.6377 25.6446 79.7278 25.6446C78.8178 25.6446 77.9935 25.8745 77.2548 26.3344C76.521 26.7942 75.9364 27.4718 75.501 28.3671C75.0705 29.2623 74.8552 30.3606 74.8552 31.6619C74.8552 32.9632 75.0705 34.0615 75.501 34.9568C75.9364 35.852 76.521 36.5296 77.2548 36.9895C77.9935 37.4493 78.8178 37.6792 79.7278 37.6792C80.6377 37.6792 81.4596 37.4493 82.1934 36.9895C82.9321 36.5296 83.5167 35.852 83.9473 34.9568C84.3827 34.0615 84.6004 32.9632 84.6004 31.6619Z" fill="black"/>
<path d="M101.339 24.1476V39.1762H99.5776L91.3882 27.3764H91.2414V39.1762H89.4216V24.1476H91.1827L99.4015 35.9768H99.5483V24.1476H101.339Z" fill="black"/>
<path d="M113.199 27.9048C113.111 27.1611 112.754 26.5839 112.128 26.1729C111.502 25.762 110.734 25.5565 109.824 25.5565C109.158 25.5565 108.576 25.6642 108.077 25.8794C107.583 26.0947 107.197 26.3906 106.918 26.7673C106.644 27.144 106.507 27.5721 106.507 28.0515C106.507 28.4527 106.602 28.7976 106.793 29.0862C106.989 29.3699 107.238 29.6072 107.541 29.798C107.845 29.9839 108.163 30.138 108.495 30.2603C108.828 30.3777 109.134 30.4731 109.413 30.5465L110.939 30.9574C111.33 31.0602 111.766 31.2021 112.245 31.3831C112.73 31.5641 113.192 31.8111 113.632 32.1242C114.077 32.4324 114.444 32.8287 114.733 33.313C115.021 33.7973 115.166 34.3917 115.166 35.0962C115.166 35.9083 114.953 36.6421 114.527 37.2977C114.107 37.9532 113.49 38.4742 112.678 38.8607C111.871 39.2472 110.89 39.4404 109.736 39.4404C108.659 39.4404 107.727 39.2667 106.94 38.9194C106.157 38.5721 105.541 38.0877 105.09 37.4664C104.645 36.8451 104.393 36.1235 104.335 35.3017H106.213C106.262 35.8692 106.453 36.3388 106.786 36.7106C107.123 37.0775 107.549 37.3515 108.062 37.5325C108.581 37.7086 109.139 37.7967 109.736 37.7967C110.43 37.7967 111.054 37.6841 111.607 37.4591C112.16 37.2292 112.597 36.9112 112.92 36.5051C113.243 36.0942 113.405 35.6148 113.405 35.0668C113.405 34.5678 113.265 34.1618 112.986 33.8487C112.708 33.5356 112.341 33.2812 111.886 33.0855C111.431 32.8898 110.939 32.7186 110.411 32.5719L108.561 32.0435C107.387 31.7059 106.458 31.2241 105.773 30.5979C105.088 29.9717 104.746 29.1522 104.746 28.1396C104.746 27.2981 104.973 26.5643 105.428 25.9381C105.888 25.307 106.504 24.8178 107.277 24.4705C108.055 24.1182 108.923 23.9421 109.882 23.9421C110.851 23.9421 111.712 24.1158 112.465 24.4631C113.219 24.8056 113.816 25.2752 114.256 25.8721C114.701 26.4689 114.936 27.1465 114.96 27.9048H113.199Z" fill="black"/>
</svg>
