<svg width="130" height="33" viewBox="0 0 130 33" fill="none" xmlns="http://www.w3.org/2000/svg">
<path d="M4.06097 14.054C5.48862 15.5252 7.15131 16.6742 9.04904 17.5012C10.9468 18.3282 12.9577 18.7417 15.0817 18.7417C15.2645 18.7417 15.5213 18.733 15.8521 18.7156L13.0447 21.2488C11.0251 20.8223 9.21008 19.9692 7.59962 18.6895C5.98916 17.4011 4.74868 15.8385 3.87816 14.0018H3.8651V19.6427C3.87381 20.1215 4.0392 20.5393 4.3613 20.8963C4.68339 21.2532 5.08383 21.4534 5.56261 21.4969V21.5361H0V21.4969C0.478785 21.4534 0.879223 21.2532 1.20131 20.8963C1.53211 20.5393 1.69751 20.1171 1.69751 19.6297V4.86132C1.6888 4.38253 1.52341 3.96903 1.20131 3.62083C0.879223 3.26392 0.478785 3.0637 0 3.02017V2.981H8.85317C10.2112 2.981 11.4081 3.16816 12.4441 3.54248C13.48 3.9168 14.307 4.50005 14.925 5.29222C15.5431 6.07569 15.8521 7.0202 15.8521 8.12576C15.8521 10.0322 15.1165 11.6078 13.6454 12.8527C12.1829 14.0888 10.2678 14.6764 7.89995 14.6155C6.67252 14.5806 5.39286 14.3935 4.06097 14.054ZM7.46905 3.24215H3.8651V13.8451C4.13496 13.906 4.46576 13.9713 4.85749 14.0409C5.24922 14.1106 5.57567 14.1672 5.83682 14.2107C6.09798 14.2455 6.23726 14.2629 6.25467 14.2629C6.27208 14.2629 6.29385 14.2673 6.31996 14.276C6.35478 14.276 6.3809 14.276 6.39831 14.276C6.40701 14.276 6.42442 14.2803 6.45054 14.289C6.47665 14.289 6.49406 14.289 6.50277 14.289C6.79004 14.3238 7.21224 14.35 7.76937 14.3674C7.80419 14.3674 7.85207 14.3717 7.91301 14.3804C7.98265 14.3804 8.03053 14.3804 8.05664 14.3804C8.9968 14.3804 9.81509 14.2499 10.5115 13.9887C11.2166 13.7188 11.7781 13.3445 12.196 12.8657C12.6225 12.3782 12.9403 11.8168 13.1492 11.1813C13.3581 10.5458 13.4626 9.83633 13.4626 9.05286C13.4626 8.40868 13.4234 7.83849 13.345 7.34229C13.2667 6.83739 13.1013 6.31943 12.8488 5.78842C12.6051 5.2487 12.27 4.80473 11.8434 4.45652C11.4255 4.09961 10.8423 3.80799 10.0937 3.58165C9.35372 3.35532 8.47885 3.24215 7.46905 3.24215Z" fill="black"/>
<path d="M18.9468 9.73186C20.2961 8.42609 22.0067 7.7732 24.0785 7.7732C26.1504 7.7732 27.8566 8.42609 29.1972 9.73186C30.5465 11.0289 31.2211 12.7003 31.2211 14.746C31.2211 16.7918 30.5465 18.4675 29.1972 19.7733C27.8566 21.0791 26.1504 21.732 24.0785 21.732C22.7205 21.732 21.4974 21.4403 20.4093 20.8571C19.3211 20.2651 18.468 19.4381 17.85 18.3761C17.2319 17.3054 16.9229 16.0954 16.9229 14.746C16.9229 12.7003 17.5975 11.0289 18.9468 9.73186ZM25.1623 21.3402C26.3375 21.3402 27.2733 20.9006 27.9697 20.0214C28.6749 19.1422 29.0274 17.9365 29.0274 16.4044C29.0274 15.6122 28.9317 14.82 28.7402 14.0279C28.5486 13.227 28.2701 12.4783 27.9045 11.7819C27.5475 11.0855 27.1253 10.4675 26.6379 9.92773C26.1504 9.3793 25.5889 8.9484 24.9534 8.63501C24.3266 8.32162 23.6694 8.16493 22.9817 8.16493C21.8065 8.16493 20.8663 8.60454 20.1612 9.48377C19.4648 10.3543 19.1166 11.5512 19.1166 13.0747C19.1166 14.0757 19.2689 15.0725 19.5736 16.0649C19.8783 17.0486 20.2918 17.9321 20.8141 18.7156C21.3364 19.4904 21.9762 20.1215 22.7336 20.609C23.4996 21.0965 24.3092 21.3402 25.1623 21.3402Z" fill="black"/>
<path d="M50.4161 5.31834L51.0951 5.78842L49.3584 7.34229L48.2223 6.23238C47.909 5.9277 47.5346 5.7623 47.0994 5.73619C46.6641 5.70137 46.2724 5.81889 45.9242 6.08875L45.6761 6.27155C45.589 6.3499 45.3409 6.58059 44.9318 6.96362C44.5836 7.29441 44.2789 7.60345 44.0177 7.89072C43.9742 7.94295 43.9089 8.0213 43.8219 8.12576C43.7348 8.22152 43.6695 8.29116 43.626 8.33468C43.5738 8.38691 43.539 8.42609 43.5215 8.4522L43.4301 8.56972L43.2343 8.81782L43.2082 8.85699C43.9742 9.34448 44.5792 9.94949 45.0232 10.672C45.4759 11.3946 45.7066 12.1737 45.7153 13.0094C45.7327 14.4718 45.1233 15.7297 43.8872 16.7831C42.651 17.8277 41.1537 18.3543 39.3953 18.3631C38.2897 18.3718 37.2408 18.1541 36.2484 17.7102L33.2973 21.4839L38.7424 20.0475L41.4976 19.3293L41.7718 19.3946C41.9546 19.4468 42.181 19.5208 42.4508 19.6166C42.7294 19.7036 43.0471 19.8212 43.404 19.9692C43.7609 20.1084 44.1222 20.2956 44.4878 20.5306C44.8534 20.757 45.2104 21.0138 45.5586 21.301C45.9068 21.5883 46.2115 21.9322 46.4726 22.3326C46.7338 22.7418 46.9383 23.1814 47.0863 23.6514C47.243 24.1302 47.3083 24.683 47.2822 25.3098C47.2561 25.9366 47.1298 26.6025 46.9035 27.3076C46.6598 28.065 46.2115 28.8136 45.5586 29.5536C44.9057 30.3022 44.2136 30.8898 43.4824 31.3164C43.4737 31.3251 43.4301 31.3512 43.3518 31.3947C43.2822 31.4382 43.2125 31.4774 43.1429 31.5122C43.0819 31.5557 42.9905 31.608 42.8687 31.6689C42.7555 31.7299 42.6249 31.7908 42.4769 31.8517C42.3376 31.9127 42.1766 31.9736 41.9938 32.0345C41.8197 32.1042 41.6151 32.1738 41.3801 32.2435C41.145 32.3131 40.8969 32.3784 40.6358 32.4393C39.3474 32.744 37.9807 32.8224 36.5356 32.6744C34.2549 32.4306 32.2309 31.4078 30.4638 29.6058C29.9502 29.0748 29.4627 28.4698 29.0013 27.7908C28.096 26.4502 27.1166 24.8876 26.0633 23.103C25.8544 22.7548 25.689 22.5024 25.5671 22.3457C25.1493 21.8059 24.5878 21.5274 23.8827 21.51V21.4969H27.6172C27.6346 21.5143 27.652 21.5448 27.6694 21.5883C27.6868 21.6231 27.6999 21.6493 27.7086 21.6667C28.4921 23.0595 29.0971 24.0954 29.5236 24.7744C30.7423 26.707 31.7434 28.1564 32.5269 29.1227C33.0666 29.7842 33.6542 30.3544 34.2897 30.8332C34.9252 31.312 35.4823 31.6559 35.9611 31.8648C36.4486 32.0824 36.9491 32.2435 37.4627 32.3479C37.9763 32.4611 38.3289 32.522 38.5204 32.5307C38.7206 32.5394 38.9035 32.5394 39.0689 32.5307C40.3833 32.4698 41.5846 32.1564 42.6728 31.5906C43.4737 31.1031 44.1004 30.5372 44.5531 29.8931C45.2234 28.9529 45.6021 27.9823 45.6891 26.9812C45.7501 26.2412 45.6674 25.5492 45.441 24.905C45.2147 24.2608 44.8796 23.6993 44.4356 23.2205C43.9916 22.7505 43.5346 22.35 43.0645 22.0192C42.5944 21.6971 42.0765 21.4055 41.5107 21.1444C40.0656 20.4741 38.577 20.3391 37.0449 20.7396L33.0623 21.7711L32.8925 21.6406L36.0525 17.6057C35.1123 17.1356 34.3593 16.5088 33.7935 15.7254C33.2277 14.9332 32.9404 14.067 32.9317 13.1269V13.0877C32.9317 12.1301 33.2103 11.2466 33.7674 10.437C34.3245 9.6274 35.0906 8.98322 36.0656 8.50443C37.0405 8.02565 38.1026 7.7819 39.2517 7.7732C40.6532 7.75579 41.9067 8.07788 43.0123 8.73947L43.0515 8.68724L43.2473 8.43915L43.3518 8.30857C43.3605 8.29116 43.3736 8.26939 43.391 8.24328C43.4171 8.20846 43.4389 8.1867 43.4563 8.17799C43.6217 7.97777 43.7609 7.81672 43.8741 7.69485C44.1614 7.38147 44.453 7.07678 44.749 6.78081C44.7838 6.74599 44.836 6.69376 44.9057 6.62411C44.9753 6.55447 45.0363 6.49354 45.0885 6.44131C45.1407 6.38037 45.1929 6.32814 45.2452 6.28461L45.6761 5.91899L45.6891 5.90594L46.1462 5.5142C46.7555 5.0006 47.4563 4.72639 48.2485 4.69156C49.0406 4.64804 49.7632 4.85696 50.4161 5.31834ZM35.3866 11.6122C35.3169 12.4827 35.4214 13.3532 35.6999 14.2237C35.9872 15.0855 36.3964 15.8385 36.9274 16.4827L39.1472 13.6623L41.9807 10.0453C41.0928 8.75688 40.0482 8.06047 38.8469 7.95601C37.9328 7.87766 37.1494 8.17799 36.4965 8.85699C35.8436 9.52729 35.4736 10.4457 35.3866 11.6122ZM43.1951 14.4457C43.3083 12.9832 42.947 11.5861 42.1113 10.2542L39.3169 13.8059L37.0841 16.6525C37.8762 17.5491 38.7555 18.041 39.7217 18.128C40.6358 18.2064 41.4193 17.906 42.0721 17.227C42.7337 16.5393 43.1081 15.6122 43.1951 14.4457Z" fill="black"/>
<path d="M55.0516 21.4316C56.0352 21.5448 56.8971 21.3533 57.637 20.8571C58.3769 20.3522 58.9254 19.5948 59.2823 18.585H60.7448C60.1267 19.5687 59.2866 20.3391 58.2246 20.8963C57.1626 21.4534 55.9743 21.732 54.6598 21.732C53.1799 21.732 51.8655 21.3837 50.7164 20.6873C49.5673 19.9822 48.7142 19.029 48.1571 17.8277C48.1484 17.8016 48.1309 17.7667 48.1048 17.7232C48.0874 17.671 48.0744 17.6362 48.0657 17.6188C47.6913 16.7395 47.5042 15.782 47.5042 14.746C47.5042 13.3967 47.8132 12.1911 48.4313 11.129C49.0493 10.0583 49.9024 9.23132 50.9906 8.64807C52.0787 8.06482 53.3018 7.7732 54.6598 7.7732C56.0962 7.7732 57.3715 8.09964 58.4858 8.75253C59.6087 9.40542 60.4618 10.3064 61.0451 11.4555C61.0538 11.4729 61.0625 11.499 61.0712 11.5338C61.0886 11.56 61.1017 11.5774 61.1104 11.5861L61.1495 11.6644L59.1386 12.6176L57.9504 13.1791L50.168 16.8745C50.6032 18.128 51.243 19.1726 52.0874 20.0083C52.9406 20.8353 53.9286 21.3098 55.0516 21.4316ZM49.6587 12.5001C49.502 13.9104 49.6456 15.2988 50.0896 16.6655L59.0603 12.3956C58.6076 11.203 57.9634 10.215 57.1277 9.43154C56.3008 8.64807 55.3432 8.1954 54.255 8.07353C53.0276 7.93424 51.996 8.26069 51.1603 9.05286C50.3334 9.83633 49.8328 10.9854 49.6587 12.5001Z" fill="black"/>
<path d="M72.9407 8.41303L73.6197 8.88311L71.883 10.45L70.747 9.32707C70.4336 9.02239 70.0549 8.85699 69.611 8.83088C69.1757 8.79606 68.784 8.91358 68.4358 9.18344L68.1616 9.40542C68.118 9.44895 68.044 9.51423 67.9396 9.60129C67.8438 9.68834 67.7698 9.75363 67.7176 9.79715C67.5783 9.92773 67.3694 10.1323 67.0908 10.4109C66.8384 10.6633 66.4771 11.0594 66.007 11.5991V19.6297C66.007 20.1171 66.1681 20.5393 66.4902 20.8963C66.821 21.2532 67.2258 21.4534 67.7045 21.4969V21.5361H62.39V21.4969C62.8775 21.4534 63.2823 21.2532 63.6044 20.8963C63.9352 20.5306 64.1006 20.1084 64.1006 19.6297V12.8135V13.0094V11.2204C64.1006 10.6372 64.0092 10.1497 63.8264 9.75798C63.6958 9.462 63.4782 9.25743 63.1735 9.14426C62.8688 9.0311 62.5685 9.03545 62.2725 9.15732L61.7241 9.39236L61.6719 9.30096L64.8318 7.7732C65.2236 8.18234 65.5152 8.6089 65.7067 9.05286C65.9069 9.48812 66.007 10.0278 66.007 10.672V11.2466C66.3378 10.8548 66.6425 10.5153 66.9211 10.2281L67.5479 9.60129C67.6436 9.50553 67.7176 9.43589 67.7698 9.39236L67.7568 9.3793L68.6578 8.6089C69.2671 8.09529 69.9679 7.82108 70.7601 7.78626C71.5609 7.74273 72.2878 7.95165 72.9407 8.41303Z" fill="black"/>
<path d="M86.5338 19.9169C86.7254 20.3957 87.03 20.7787 87.4479 21.066C87.8744 21.3533 88.3445 21.4969 88.8581 21.4969V21.5361H82.5251V21.4969C83.0561 21.4969 83.4696 21.2793 83.7656 20.844C84.0703 20.4001 84.1269 19.93 83.9353 19.4338L82.956 16.9789L82.9168 16.8614H74.6643L73.5936 19.3554C73.4282 19.7646 73.4195 20.1737 73.5675 20.5829C73.7242 20.992 73.9984 21.2967 74.3901 21.4969V21.5361H71.0212V21.4969C72.179 21.0181 73.0016 20.2042 73.4891 19.0551L74.129 17.5535L75.5392 14.2107L78.8036 6.54577L77.1975 2.52397L77.3542 2.44563L79.2607 1.54464L86.2727 19.2771H86.2858L86.5338 19.9169ZM74.7557 16.6394H82.8254L82.7732 16.4958L82.3684 15.4773L78.9081 6.83304L75.7481 14.289L74.7557 16.6394Z" fill="black"/>
<path d="M99.7353 8.41303L100.414 8.88311L98.6776 10.45L97.5415 9.32707C97.2282 9.02239 96.8495 8.85699 96.4055 8.83088C95.9703 8.79606 95.5785 8.91358 95.2303 9.18344L94.9561 9.40542C94.9126 9.44895 94.8386 9.51423 94.7341 9.60129C94.6384 9.68834 94.5644 9.75363 94.5121 9.79715C94.3729 9.92773 94.1639 10.1323 93.8854 10.4109C93.6329 10.6633 93.2717 11.0594 92.8016 11.5991V19.6297C92.8016 20.1171 92.9626 20.5393 93.2847 20.8963C93.6155 21.2532 94.0203 21.4534 94.4991 21.4969V21.5361H89.1846V21.4969C89.6721 21.4534 90.0769 21.2532 90.3989 20.8963C90.7297 20.5306 90.8951 20.1084 90.8951 19.6297V12.8135V13.0094V11.2204C90.8951 10.6372 90.8037 10.1497 90.6209 9.75798C90.4903 9.462 90.2727 9.25743 89.968 9.14426C89.6634 9.0311 89.363 9.03545 89.0671 9.15732L88.5186 9.39236L88.4664 9.30096L91.6264 7.7732C92.0181 8.18234 92.3097 8.6089 92.5013 9.05286C92.7015 9.48812 92.8016 10.0278 92.8016 10.672V11.2466C93.1324 10.8548 93.4371 10.5153 93.7156 10.2281L94.3424 9.60129C94.4381 9.50553 94.5121 9.43589 94.5644 9.39236L94.5513 9.3793L95.4523 8.6089C96.0617 8.09529 96.7624 7.82108 97.5546 7.78626C98.3555 7.74273 99.0824 7.95165 99.7353 8.41303Z" fill="black"/>
<path d="M105.246 14.746C105.237 14.7548 105.233 14.7635 105.233 14.7722C105.233 14.7896 105.228 14.7983 105.22 14.7983L104.07 16.3391V19.6297C104.07 20.1171 104.231 20.5393 104.554 20.8963C104.884 21.2532 105.289 21.4534 105.768 21.4969V21.5361H100.453V21.4969C100.941 21.4534 101.346 21.2532 101.668 20.8963C101.999 20.5306 102.164 20.1084 102.164 19.6297V3.79058C102.164 3.52942 102.055 3.32485 101.838 3.17686C101.62 3.02888 101.389 3.00276 101.145 3.09852L100.323 3.4119V3.30744L102.164 2.43257L104.07 1.53158V15.9735L105.246 14.4065C105.986 13.3358 106.578 12.4958 107.021 11.8864C107.474 11.2683 107.953 10.6764 108.458 10.1105C108.963 9.536 109.394 9.1225 109.751 8.87005C110.107 8.6089 110.538 8.37821 111.043 8.17799C111.548 7.97777 112.049 7.8559 112.545 7.81237C113.041 7.76885 113.655 7.75579 114.386 7.7732L113.498 9.74492C111.992 9.72751 110.708 9.97996 109.646 10.5023C108.593 11.0246 107.618 11.8037 106.721 12.8396L111.304 18.0366C112.427 19.3163 113.141 20.0997 113.446 20.387C113.933 20.8484 114.486 21.2314 115.104 21.5361H111.827L105.52 14.3804L105.246 14.746Z" fill="black"/>
<path d="M119.951 5.40249V0H121.777C122.199 0 122.545 0.0721035 122.816 0.21631C123.087 0.358759 123.288 0.554845 123.418 0.80457C123.548 1.05429 123.613 1.33831 123.613 1.65662C123.613 1.97493 123.548 2.25719 123.418 2.5034C123.288 2.74961 123.088 2.94305 122.819 3.08374C122.55 3.22268 122.206 3.29214 121.787 3.29214H120.31V2.70124H121.766C122.055 2.70124 122.287 2.65904 122.463 2.57462C122.64 2.49021 122.769 2.37062 122.848 2.21586C122.929 2.05935 122.969 1.87293 122.969 1.65662C122.969 1.44031 122.929 1.25126 122.848 1.08947C122.767 0.927673 122.638 0.802811 122.46 0.71488C122.283 0.62519 122.048 0.580345 121.756 0.580345H120.606V5.40249H119.951ZM122.494 2.97559L123.824 5.40249H123.064L121.756 2.97559H122.494Z" fill="black"/>
<path d="M124.703 0H125.484L127.32 4.48449H127.383L129.219 0H130V5.40249H129.388V1.29786H129.335L127.647 5.40249H127.056L125.368 1.29786H125.315V5.40249H124.703V0Z" fill="black"/>
</svg>
