<svg width="112" height="60" viewBox="0 0 112 60" fill="none" xmlns="http://www.w3.org/2000/svg">
<path d="M100.571 10.4189L97.2156 0L93.8604 10.4189H83.0027L91.7866 16.8582L88.4313 27.2771L97.2156 20.8379L106 27.2771L102.645 16.8582L111.429 10.4189H100.571Z" fill="black"/>
<path d="M2.4392 13.9928H0V30.1568H2.4392V13.9928Z" fill="black"/>
<path d="M7.69315 24.4391C7.69315 22.2437 8.84124 20.3378 11.1364 20.3378C13.4798 20.3378 14.6756 22.2437 14.6756 24.4633V30.1568H17.0428V24.1737C17.0428 20.7479 14.9621 18.0459 11.1364 18.0459C7.35845 18.0459 5.32595 20.7479 5.32595 24.1979V30.1568H7.69315V24.4391Z" fill="black"/>
<path d="M20.0993 25.9107C20.0993 28.6128 21.6536 30.4705 24.5705 30.4705C25.4316 30.4705 26.3641 30.205 26.962 29.795V27.5996C26.5651 27.8832 26.0426 28.1091 25.505 28.2213C25.2652 28.2715 25.022 28.2991 24.786 28.2991C23.3752 28.2991 22.4665 27.3824 22.4665 25.8383V20.4101H26.962V18.3353H22.4665V15.2714H20.0993V18.3353H17.7798V20.4101H20.0993V25.9107Z" fill="black"/>
<path fill-rule="evenodd" clip-rule="evenodd" d="M27.8328 24.1737C27.8328 27.8166 30.487 30.4222 34.05 30.4222C36.3452 30.4222 38.2342 29.3365 39.2626 27.31L37.4451 26.3692C36.7519 27.6719 35.4608 28.2991 34.0262 28.2991C31.9217 28.2991 30.3917 26.8757 30.1285 24.8492H39.5015V23.8842C39.5015 20.5791 37.3016 17.9976 33.763 17.9976C30.2482 17.9976 27.8328 20.772 27.8328 24.1737ZM37.1343 23.3052H30.2239C30.4632 21.544 31.7543 20.1448 33.7391 20.1448C35.6758 20.1448 37.0389 21.4234 37.1343 23.3052Z" fill="black"/>
<path d="M41.1321 30.1568H43.4993V23.2087C43.4993 21.4716 44.4562 20.386 46.0344 20.386C46.3705 20.386 46.7135 20.4318 47.0457 20.5235C47.3517 20.6078 47.6485 20.7309 47.9234 20.8927V18.5284C47.3255 18.2389 46.5602 18.0941 45.8189 18.0941C42.7584 18.0941 41.1321 20.2412 41.1321 23.1121V30.1568Z" fill="black"/>
<path d="M48.205 14.4271C48.205 15.2955 48.8987 15.9952 49.7593 15.9952C50.6204 15.9952 51.2898 15.2955 51.2898 14.4271C51.2898 13.5585 50.6204 12.8347 49.7593 12.8347C48.8987 12.8347 48.205 13.5585 48.205 14.4271Z" fill="black"/>
<path d="M50.9551 18.3353H48.5879V30.1568H50.9551V18.3353Z" fill="black"/>
<path fill-rule="evenodd" clip-rule="evenodd" d="M52.8742 24.2219C52.8742 27.6478 55.6004 30.4463 59.1391 30.4463C62.6544 30.4463 65.3563 27.6478 65.3563 24.2219C65.3563 20.8444 62.6782 18.0459 59.1391 18.0459C55.6243 18.0459 52.8742 20.8203 52.8742 24.2219ZM62.9891 24.2461C62.9891 26.3932 61.3151 28.1785 59.1391 28.1785C56.9392 28.1785 55.2419 26.3932 55.2419 24.2461C55.2419 22.0748 56.9392 20.2895 59.1391 20.2895C61.3151 20.2895 62.9891 22.0748 62.9891 24.2461Z" fill="black"/>
<path d="M66.8045 30.1568H69.1717V23.2087C69.1717 21.4716 70.1281 20.386 71.7062 20.386C72.3518 20.386 73.0212 20.5549 73.5952 20.8927V18.5284C72.9974 18.2389 72.2321 18.0941 71.4907 18.0941C68.4303 18.0941 66.8045 20.2412 66.8045 23.1121V30.1568Z" fill="black"/>
<path fill-rule="evenodd" clip-rule="evenodd" d="M5.42811 54.2823C10.3775 54.2823 14.1317 51.1942 14.1317 46.1278C14.1317 41.327 10.6884 38.1183 5.54779 38.1183H0V54.2823H5.42811ZM5.54779 40.386C9.1341 40.386 11.621 42.702 11.621 46.1278C11.621 49.8191 8.91907 52.0386 5.42811 52.0386H2.4392V40.386H5.54779Z" fill="black"/>
<path fill-rule="evenodd" clip-rule="evenodd" d="M15.1158 48.2991C15.1158 51.9421 17.77 54.5477 21.333 54.5477C23.6287 54.5477 25.5177 53.462 26.5456 51.4354L24.7286 50.4946C24.0349 51.7973 22.7438 52.4246 21.3092 52.4246C19.2047 52.4246 17.6747 51.0012 17.4115 48.9746H26.7849V48.0097C26.7849 44.7045 24.5851 42.1231 21.046 42.1231C17.5312 42.1231 15.1158 44.8974 15.1158 48.2991ZM24.4177 47.4306H17.5073C17.7462 45.6695 19.0373 44.2703 21.0221 44.2703C22.9588 44.2703 24.3219 45.5489 24.4177 47.4306Z" fill="black"/>
<path d="M27.8654 51.9179C28.7741 53.6792 30.4481 54.5477 32.6236 54.5477C35.1105 54.5477 37.2627 53.1243 37.2627 50.8806C37.2627 48.3085 35.0312 47.8035 33.1403 47.3756C31.7499 47.061 30.5435 46.7881 30.5435 45.7659C30.5435 44.8251 31.4999 44.2461 32.5998 44.2461C33.6759 44.2461 34.6323 44.6079 35.1344 45.6453L36.9518 44.6079C36.2104 43.2329 34.7281 42.2196 32.5521 42.2196C29.9937 42.2196 28.1763 43.7394 28.1763 45.8143C28.1763 48.4038 30.3902 48.887 32.2763 49.2986C33.6759 49.6041 34.8955 49.8703 34.8955 50.9288C34.8955 51.9663 33.8671 52.5212 32.5283 52.5212C31.2372 52.5212 30.2803 52.0869 29.6829 50.9047L27.8654 51.9179Z" fill="black"/>
<path d="M39.0145 38.5525C39.0145 39.4209 39.7077 40.1206 40.5683 40.1206C41.4294 40.1206 42.0988 39.4209 42.0988 38.5525C42.0988 37.684 41.4294 36.9601 40.5683 36.9601C39.7077 36.9601 39.0145 37.684 39.0145 38.5525Z" fill="black"/>
<path d="M41.7641 42.4608H39.3969V54.2823H41.7641V42.4608Z" fill="black"/>
<path fill-rule="evenodd" clip-rule="evenodd" d="M43.9946 56.7913C45.0702 58.8902 47.1747 60 49.7092 60C53.4395 60 56.1652 57.3221 56.1652 53.2207V48.3474C56.1652 44.8251 53.4634 42.1713 49.9242 42.1713C46.3618 42.1713 43.6837 44.9458 43.6837 48.3233C43.6837 51.7973 46.3136 54.4511 49.6377 54.4511C51.5982 54.4511 53.0328 53.5344 53.798 52.304V53.2449C53.798 56.0193 52.1241 57.8046 49.6615 57.8046C47.9637 57.8046 46.6726 56.9843 45.9789 55.7057L43.9946 56.7913ZM53.7742 48.2991C53.7742 50.4705 52.0526 52.2075 49.9004 52.2075C47.7725 52.2075 46.0271 50.4705 46.0271 48.2991C46.0271 46.1278 47.7725 44.4391 49.9004 44.4391C52.0526 44.4391 53.7742 46.1278 53.7742 48.2991Z" fill="black"/>
<path d="M60.7279 48.5646C60.7279 46.3692 61.8755 44.4633 64.1712 44.4633C66.5146 44.4633 67.7098 46.3692 67.7098 48.5887V54.2823H70.077V48.2991C70.077 44.8734 67.9969 42.1713 64.1712 42.1713C60.3932 42.1713 58.3607 44.8734 58.3607 48.3233V54.2823H60.7279V48.5646Z" fill="black"/>
</svg>
